Mattone-Regular.ufo
<glyph name="exclam" format="2">
  <advance width="346"/>
  <unicode hex="0021"/>
  <outline>
    <contour>
      <point x="76" y="770" type="line"/>
      <point x="107" y="253" type="line"/>
      <point x="235" y="253" type="line"/>
      <point x="266" y="770" type="line"/>
    </contour>
    <component base="period" xOffset="17"/>
  </outline>
</glyph>
<glyph name="quotedbl" format="2">
  <advance width="498"/>
  <unicode hex="0022"/>
  <outline>
    <contour>
      <point x="51" y="785" type="line"/>
      <point x="81" y="499" type="line"/>
      <point x="191" y="499" type="line"/>
      <point x="221" y="785" type="line"/>
    </contour>
    <contour>
      <point x="279" y="785" type="line"/>
      <point x="309" y="499" type="line"/>
      <point x="419" y="499" type="line"/>
      <point x="449" y="785" type="line"/>
    </contour>
  </outline>
</glyph>
<glyph name="numbersign" format="2">
  <advance width="1046"/>
  <unicode hex="0023"/>
  <outline>
    <contour>
      <point x="109" y="-21" type="line"/>
      <point x="230" y="-21" type="line"/>
      <point x="569" y="785" type="line"/>
      <point x="450" y="785" type="line"/>
    </contour>
    <contour>
      <point x="466" y="-21" type="line"/>
      <point x="587" y="-21" type="line"/>
      <point x="926" y="785" type="line"/>
      <point x="807" y="785" type="line"/>
    </contour>
    <contour>
      <point x="137" y="607" type="line"/>
      <point x="137" y="512" type="line"/>
      <point x="1006" y="512" type="line"/>
      <point x="1006" y="607" type="line"/>
    </contour>
    <contour>
      <point x="42" y="275" type="line"/>
      <point x="42" y="180" type="line"/>
      <point x="920" y="180" type="line"/>
      <point x="920" y="275" type="line"/>
    </contour>
  </outline>
</glyph>
<glyph name="percent" format="2">
  <advance width="975"/>
  <unicode hex="0025"/>
  <outline>
    <contour>
      <point x="100" y="0" type="line"/>
      <point x="248" y="0" type="line"/>
      <point x="861" y="754" type="line"/>
      <point x="713" y="754" type="line"/>
    </contour>
    <contour>
      <point x="238" y="406" type="curve" smooth="yes"/>
      <point x="356" y="406"/>
      <point x="435" y="481"/>
      <point x="435" y="597" type="curve" smooth="yes"/>
      <point x="435" y="711"/>
      <point x="356" y="785"/>
      <point x="238" y="785" type="curve" smooth="yes"/>
      <point x="119" y="785"/>
      <point x="40" y="711"/>
      <point x="40" y="597" type="curve" smooth="yes"/>
      <point x="40" y="481"/>
      <point x="119" y="406"/>
    </contour>
    <contour>
      <point x="238" y="498" type="curve" smooth="yes"/>
      <point x="182" y="500"/>
      <point x="142" y="536"/>
      <point x="143" y="596" type="curve" smooth="yes"/>
      <point x="142" y="655"/>
      <point x="182" y="691"/>
      <point x="238" y="693" type="curve" smooth="yes"/>
      <point x="293" y="695"/>
      <point x="333" y="655"/>
      <point x="332" y="596" type="curve" smooth="yes"/>
      <point x="333" y="536"/>
      <point x="293" y="496"/>
    </contour>
    <contour>
      <point x="738" y="-15" type="curve" smooth="yes"/>
      <point x="856" y="-15"/>
      <point x="935" y="60"/>
      <point x="935" y="176" type="curve" smooth="yes"/>
      <point x="935" y="290"/>
      <point x="856" y="364"/>
      <point x="738" y="364" type="curve" smooth="yes"/>
      <point x="619" y="364"/>
      <point x="540" y="290"/>
      <point x="540" y="176" type="curve" smooth="yes"/>
      <point x="540" y="60"/>
      <point x="619" y="-15"/>
    </contour>
    <contour>
      <point x="738" y="77" type="curve" smooth="yes"/>
      <point x="682" y="75"/>
      <point x="642" y="115"/>
      <point x="643" y="175" type="curve" smooth="yes"/>
      <point x="642" y="234"/>
      <point x="682" y="274"/>
      <point x="738" y="272" type="curve" smooth="yes"/>
      <point x="793" y="270"/>
      <point x="833" y="234"/>
      <point x="832" y="175" type="curve" smooth="yes"/>
      <point x="833" y="115"/>
      <point x="793" y="79"/>
    </contour>
  </outline>
</glyph>
<glyph name="ampersand" format="2">
  <advance width="952"/>
  <unicode hex="0026"/>
  <outline>
    <contour>
      <point x="681" y="637" type="curve"/>
      <point x="681" y="762" type="line"/>
      <point x="632" y="767"/>
      <point x="576" y="770"/>
      <point x="507" y="770" type="curve" smooth="yes"/>
      <point x="241" y="770"/>
      <point x="99" y="697"/>
      <point x="99" y="565" type="curve" smooth="yes"/>
      <point x="99" y="482"/>
      <point x="152" y="422"/>
      <point x="270" y="380" type="curve"/>
      <point x="129" y="360"/>
      <point x="55" y="297"/>
      <point x="55" y="191" type="curve" smooth="yes"/>
      <point x="55" y="53"/>
      <point x="186" y="-21"/>
      <point x="446" y="-21" type="curve" smooth="yes"/>
      <point x="568" y="-21"/>
      <point x="684" y="-2"/>
      <point x="772" y="33" type="curve"/>
      <point x="647" y="123" type="line"/>
      <point x="588" y="110"/>
      <point x="528" y="102"/>
      <point x="459" y="102" type="curve" smooth="yes"/>
      <point x="299" y="102"/>
      <point x="219" y="145"/>
      <point x="219" y="210" type="curve" smooth="yes"/>
      <point x="219" y="276"/>
      <point x="289" y="317"/>
      <point x="404" y="317" type="curve" smooth="yes"/>
      <point x="907" y="317" type="line"/>
      <point x="907" y="437" type="line"/>
      <point x="424" y="437" type="line" smooth="yes"/>
      <point x="309" y="437"/>
      <point x="255" y="471"/>
      <point x="255" y="539" type="curve" smooth="yes"/>
      <point x="255" y="614"/>
      <point x="334" y="645"/>
      <point x="522" y="645" type="curve" smooth="yes"/>
      <point x="574" y="645"/>
      <point x="626" y="643"/>
    </contour>
    <contour>
      <point x="642" y="550" type="line"/>
      <point x="642" y="110" type="line"/>
      <point x="762" y="34" type="line"/>
      <point x="772" y="33" type="line"/>
      <point x="771" y="550" type="line"/>
    </contour>
  </outline>
</glyph>
<glyph name="quotesingle" format="2">
  <advance width="242"/>
  <unicode hex="0027"/>
  <outline>
    <contour>
      <point x="37" y="785" type="line"/>
      <point x="67" y="499" type="line"/>
      <point x="177" y="499" type="line"/>
      <point x="207" y="785" type="line"/>
    </contour>
  </outline>
</glyph>
<glyph name="parenleft" format="2">
  <advance width="421"/>
  <unicode hex="0028"/>
  <outline>
    <contour>
      <point x="391" y="665" type="curve"/>
      <point x="391" y="785" type="line"/>
      <point x="183" y="782"/>
      <point x="50" y="590"/>
      <point x="50" y="285" type="curve" smooth="yes"/>
      <point x="50" y="-18"/>
      <point x="183" y="-212"/>
      <point x="391" y="-215" type="curve"/>
      <point x="391" y="-95" type="line"/>
      <point x="271" y="-91"/>
      <point x="200" y="62"/>
      <point x="200" y="285" type="curve" smooth="yes"/>
      <point x="200" y="510"/>
      <point x="271" y="661"/>
    </contour>
  </outline>
</glyph>
<glyph name="asterisk" format="2">
  <advance width="565"/>
  <unicode hex="002A"/>
  <outline>
    <contour>
      <point x="344" y="559" type="line"/>
      <point x="514" y="569" type="line"/>
      <point x="470" y="710" type="line"/>
      <point x="325" y="629" type="line"/>
      <point x="360" y="785" type="line"/>
      <point x="201" y="785" type="line"/>
      <point x="238" y="630" type="line"/>
      <point x="93" y="710" type="line"/>
      <point x="49" y="569" type="line"/>
      <point x="219" y="558" type="line"/>
      <point x="83" y="444" type="line"/>
      <point x="209" y="362" type="line"/>
      <point x="281" y="513" type="line"/>
      <point x="355" y="362" type="line"/>
      <point x="478" y="444" type="line"/>
    </contour>
  </outline>
</glyph>
<glyph name="plus" format="2">
  <advance width="667"/>
  <unicode hex="002B"/>
  <outline>
    <contour>
      <point x="273" y="0" type="line"/>
      <point x="393" y="0" type="line"/>
      <point x="393" y="577" type="line"/>
      <point x="273" y="577" type="line"/>
    </contour>
    <contour>
      <point x="622" y="237" type="line"/>
      <point x="622" y="342" type="line"/>
      <point x="45" y="342" type="line"/>
      <point x="45" y="237" type="line"/>
    </contour>
  </outline>
</glyph>
<glyph name="comma" format="2">
  <advance width="338"/>
  <unicode hex="002C"/>
  <outline>
    <contour>
      <point x="91" y="160" type="line"/>
      <point x="59" y="-131" type="line"/>
      <point x="170" y="-131" type="line"/>
      <point x="265" y="160" type="line"/>
    </contour>
  </outline>
</glyph>
<glyph name="hyphen" format="2">
  <advance width="495"/>
  <unicode hex="002D"/>
  <outline>
    <contour>
      <point x="50" y="377" type="line"/>
      <point x="50" y="257" type="line"/>
      <point x="445" y="257" type="line"/>
      <point x="445" y="377" type="line"/>
    </contour>
  </outline>
</glyph>
<glyph name="period" format="2">
  <advance width="314"/>
  <unicode hex="002E"/>
  <outline>
    <contour>
      <point x="67" y="160" type="line"/>
      <point x="67" y="0" type="line"/>
      <point x="237" y="0" type="line"/>
      <point x="237" y="160" type="line"/>
    </contour>
  </outline>
</glyph>
<glyph name="slash" format="2">
  <advance width="510"/>
  <unicode hex="002F"/>
  <outline>
    <contour>
      <point x="14" y="-215" type="line"/>
      <point x="141" y="-215" type="line"/>
      <point x="480" y="785" type="line"/>
      <point x="353" y="785" type="line"/>
    </contour>
  </outline>
</glyph>
<glyph name="zero" format="2">
  <advance width="860"/>
  <unicode hex="0030"/>
  <note>
zero
</note>
  <outline>
    <contour>
      <point x="430" y="-20" type="curve" smooth="yes"/>
      <point x="664" y="-20"/>
      <point x="815" y="135"/>
      <point x="815" y="375" type="curve" smooth="yes"/>
      <point x="815" y="615"/>
      <point x="664" y="770"/>
      <point x="430" y="770" type="curve" smooth="yes"/>
      <point x="196" y="770"/>
      <point x="45" y="615"/>
      <point x="45" y="375" type="curve" smooth="yes"/>
      <point x="45" y="135"/>
      <point x="196" y="-20"/>
    </contour>
    <contour>
      <point x="430" y="105" type="curve" smooth="yes"/>
      <point x="279" y="105"/>
      <point x="200" y="198"/>
      <point x="200" y="375" type="curve" smooth="yes"/>
      <point x="200" y="553"/>
      <point x="279" y="646"/>
      <point x="430" y="646" type="curve" smooth="yes"/>
      <point x="581" y="646"/>
      <point x="660" y="553"/>
      <point x="660" y="375" type="curve" smooth="yes"/>
      <point x="660" y="198"/>
      <point x="581" y="105"/>
    </contour>
  </outline>
</glyph>
<glyph name="one" format="2">
  <advance width="552"/>
  <unicode hex="0031"/>
  <note>
one
</note>
  <outline>
    <contour>
      <point x="40" y="430" type="line"/>
      <point x="202" y="430"/>
      <point x="335" y="506"/>
      <point x="358" y="634" type="curve"/>
      <point x="332" y="660" type="line"/>
      <point x="332" y="0" type="line"/>
      <point x="482" y="0" type="line"/>
      <point x="482" y="750" type="line"/>
      <point x="335" y="750" type="line"/>
      <point x="296" y="632"/>
      <point x="183" y="569"/>
      <point x="40" y="559" type="curve"/>
    </contour>
  </outline>
</glyph>
<glyph name="two" format="2">
  <advance width="763"/>
  <unicode hex="0032"/>
  <note>
two
</note>
  <outline>
    <contour>
      <point x="50" y="0" type="line"/>
      <point x="710" y="0" type="line"/>
      <point x="710" y="132" type="line"/>
      <point x="155" y="132" type="line"/>
      <point x="155" y="114" type="line"/>
      <point x="491" y="175"/>
      <point x="696" y="327"/>
      <point x="696" y="530" type="curve" smooth="yes"/>
      <point x="696" y="685"/>
      <point x="570" y="773"/>
      <point x="363" y="773" type="curve" smooth="yes"/>
      <point x="266" y="773"/>
      <point x="164" y="758"/>
      <point x="73" y="722" type="curve"/>
      <point x="73" y="596" type="line"/>
      <point x="156" y="630"/>
      <point x="258" y="644"/>
      <point x="339" y="644" type="curve" smooth="yes"/>
      <point x="467" y="644"/>
      <point x="543" y="601"/>
      <point x="543" y="512" type="curve" smooth="yes"/>
      <point x="543" y="403"/>
      <point x="446" y="328"/>
      <point x="50" y="148" type="curve"/>
    </contour>
  </outline>
</glyph>
<glyph name="three" format="2">
  <advance width="790"/>
  <unicode hex="0033"/>
  <note>
three
</note>
  <outline>
    <contour>
      <point x="64" y="20" type="line"/>
      <point x="167" y="-6"/>
      <point x="260" y="-19"/>
      <point x="362" y="-19" type="curve" smooth="yes"/>
      <point x="596" y="-19"/>
      <point x="741" y="65"/>
      <point x="741" y="225" type="curve" smooth="yes"/>
      <point x="741" y="381"/>
      <point x="591" y="452"/>
      <point x="444" y="422" type="curve"/>
      <point x="695" y="625" type="line"/>
      <point x="695" y="750" type="line"/>
      <point x="80" y="750" type="line"/>
      <point x="80" y="626" type="line"/>
      <point x="577" y="626" type="line"/>
      <point x="561" y="670" type="line"/>
      <point x="217" y="376" type="line"/>
      <point x="217" y="361" type="line"/>
      <point x="362" y="361" type="line" smooth="yes"/>
      <point x="508" y="361"/>
      <point x="580" y="311"/>
      <point x="580" y="236" type="curve" smooth="yes"/>
      <point x="580" y="158"/>
      <point x="496" y="115"/>
      <point x="353" y="115" type="curve" smooth="yes"/>
      <point x="251" y="115"/>
      <point x="147" y="130"/>
      <point x="50" y="160" type="curve"/>
    </contour>
  </outline>
</glyph>
<glyph name="four" format="2">
  <advance width="829"/>
  <unicode hex="0034"/>
  <note>
four
</note>
  <outline>
    <contour>
      <point x="30" y="161" type="line"/>
      <point x="509" y="161" type="line"/>
      <point x="509" y="0" type="line"/>
      <point x="659" y="0" type="line"/>
      <point x="659" y="161" type="line"/>
      <point x="809" y="161" type="line"/>
      <point x="809" y="281" type="line"/>
      <point x="659" y="281" type="line"/>
      <point x="659" y="750" type="line"/>
      <point x="412" y="750" type="line"/>
      <point x="30" y="271" type="line"/>
    </contour>
    <contour>
      <point x="211" y="281" type="line"/>
      <point x="509" y="657" type="line"/>
      <point x="509" y="281" type="line"/>
    </contour>
  </outline>
</glyph>
<glyph name="five" format="2">
  <advance width="784"/>
  <unicode hex="0035"/>
  <note>
five
</note>
  <outline>
    <contour>
      <point x="65" y="41" type="line"/>
      <point x="161" y="2"/>
      <point x="271" y="-19"/>
      <point x="387" y="-19" type="curve" smooth="yes"/>
      <point x="609" y="-19"/>
      <point x="734" y="70"/>
      <point x="734" y="227" type="curve" smooth="yes"/>
      <point x="734" y="364"/>
      <point x="607" y="462"/>
      <point x="430" y="462" type="curve" smooth="yes"/>
      <point x="345" y="462"/>
      <point x="272" y="440"/>
      <point x="226" y="407" type="curve"/>
      <point x="226" y="624" type="line"/>
      <point x="695" y="624" type="line"/>
      <point x="695" y="750" type="line"/>
      <point x="94" y="750" type="line"/>
      <point x="94" y="312" type="line"/>
      <point x="227" y="335"/>
      <point x="300" y="343"/>
      <point x="367" y="343" type="curve" smooth="yes"/>
      <point x="515" y="343"/>
      <point x="584" y="304"/>
      <point x="584" y="231" type="curve" smooth="yes"/>
      <point x="584" y="155"/>
      <point x="509" y="113"/>
      <point x="376" y="113" type="curve" smooth="yes"/>
      <point x="269" y="113"/>
      <point x="158" y="136"/>
      <point x="65" y="179" type="curve"/>
    </contour>
  </outline>
</glyph>
<glyph name="six" format="2">
  <advance width="842"/>
  <unicode hex="0036"/>
  <note>
six
</note>
  <outline>
    <contour>
      <point x="214" y="242" type="line"/>
      <point x="278" y="305"/>
      <point x="367" y="338"/>
      <point x="470" y="338" type="curve" smooth="yes"/>
      <point x="588" y="338"/>
      <point x="656" y="298"/>
      <point x="656" y="230" type="curve" smooth="yes"/>
      <point x="656" y="161"/>
      <point x="585" y="116"/>
      <point x="477" y="116" type="curve" smooth="yes"/>
      <point x="295" y="116"/>
      <point x="197" y="207"/>
      <point x="197" y="378" type="curve" smooth="yes"/>
      <point x="197" y="545"/>
      <point x="306" y="645"/>
      <point x="506" y="645" type="curve" smooth="yes"/>
      <point x="590" y="645"/>
      <point x="677" y="627"/>
      <point x="743" y="592" type="curve"/>
      <point x="740" y="732" type="line"/>
      <point x="677" y="755"/>
      <point x="581" y="770"/>
      <point x="499" y="770" type="curve" smooth="yes"/>
      <point x="229" y="770"/>
      <point x="57" y="604"/>
      <point x="57" y="368" type="curve" smooth="yes"/>
      <point x="57" y="123"/>
      <point x="213" y="-19"/>
      <point x="466" y="-19" type="curve" smooth="yes"/>
      <point x="658" y="-19"/>
      <point x="796" y="90"/>
      <point x="796" y="241" type="curve" smooth="yes"/>
      <point x="796" y="380"/>
      <point x="679" y="472"/>
      <point x="502" y="472" type="curve" smooth="yes"/>
      <point x="368" y="472"/>
      <point x="273" y="418"/>
      <point x="186" y="339" type="curve"/>
    </contour>
  </outline>
</glyph>
<glyph name="seven" format="2">
  <advance width="740"/>
  <unicode hex="0037"/>
  <note>
seven
</note>
  <outline>
    <contour>
      <point x="30" y="622" type="line"/>
      <point x="595" y="622" type="line"/>
      <point x="577" y="675" type="line"/>
      <point x="94" y="0" type="line"/>
      <point x="267" y="0" type="line"/>
      <point x="700" y="622" type="line"/>
      <point x="700" y="750" type="line"/>
      <point x="30" y="750" type="line"/>
    </contour>
  </outline>
</glyph>
<glyph name="eight" format="2">
  <advance width="827"/>
  <unicode hex="0038"/>
  <note>
eight
</note>
  <outline>
    <contour>
      <point x="45" y="200" type="curve" smooth="yes"/>
      <point x="45" y="55"/>
      <point x="172" y="-20"/>
      <point x="411" y="-20" type="curve" smooth="yes"/>
      <point x="653" y="-20"/>
      <point x="782" y="54"/>
      <point x="782" y="197" type="curve" smooth="yes"/>
      <point x="782" y="293"/>
      <point x="715" y="363"/>
      <point x="588" y="400" type="curve"/>
      <point x="708" y="425"/>
      <point x="758" y="477"/>
      <point x="758" y="576" type="curve" smooth="yes"/>
      <point x="758" y="699"/>
      <point x="639" y="768"/>
      <point x="417" y="768" type="curve" smooth="yes"/>
      <point x="190" y="768"/>
      <point x="69" y="701"/>
      <point x="69" y="581" type="curve" smooth="yes"/>
      <point x="69" y="494"/>
      <point x="119" y="437"/>
      <point x="240" y="398" type="curve"/>
      <point x="108" y="365"/>
      <point x="45" y="302"/>
    </contour>
    <contour>
      <point x="199" y="221" type="curve" smooth="yes"/>
      <point x="199" y="300"/>
      <point x="264" y="333"/>
      <point x="414" y="333" type="curve" smooth="yes"/>
      <point x="564" y="333"/>
      <point x="628" y="300"/>
      <point x="628" y="221" type="curve" smooth="yes"/>
      <point x="628" y="143"/>
      <point x="564" y="113"/>
      <point x="414" y="113" type="curve" smooth="yes"/>
      <point x="264" y="113"/>
      <point x="199" y="143"/>
    </contour>
    <contour>
      <point x="215" y="546" type="curve" smooth="yes"/>
      <point x="215" y="614"/>
      <point x="275" y="641"/>
      <point x="414" y="641" type="curve" smooth="yes"/>
      <point x="552" y="641"/>
      <point x="612" y="614"/>
      <point x="612" y="546" type="curve" smooth="yes"/>
      <point x="612" y="474"/>
      <point x="552" y="446"/>
      <point x="414" y="446" type="curve" smooth="yes"/>
      <point x="275" y="446"/>
      <point x="215" y="474"/>
    </contour>
  </outline>
</glyph>
<glyph name="nine" format="2">
  <advance width="836"/>
  <unicode hex="0039"/>
  <note>
nine
</note>
  <outline>
    <contour>
      <point x="619" y="525" type="line"/>
      <point x="567" y="456"/>
      <point x="483" y="412"/>
      <point x="383" y="412" type="curve" smooth="yes"/>
      <point x="265" y="412"/>
      <point x="197" y="452"/>
      <point x="197" y="520" type="curve" smooth="yes"/>
      <point x="197" y="594"/>
      <point x="266" y="644"/>
      <point x="376" y="644" type="curve" smooth="yes"/>
      <point x="550" y="644"/>
      <point x="648" y="544"/>
      <point x="648" y="372" type="curve" smooth="yes"/>
      <point x="648" y="210"/>
      <point x="537" y="112"/>
      <point x="349" y="112" type="curve" smooth="yes"/>
      <point x="261" y="112"/>
      <point x="171" y="133"/>
      <point x="97" y="175" type="curve"/>
      <point x="100" y="30" type="line"/>
      <point x="174" y="-5"/>
      <point x="276" y="-20"/>
      <point x="360" y="-20" type="curve" smooth="yes"/>
      <point x="613" y="-20"/>
      <point x="785" y="146"/>
      <point x="785" y="382" type="curve" smooth="yes"/>
      <point x="785" y="626"/>
      <point x="631" y="769"/>
      <point x="387" y="769" type="curve" smooth="yes"/>
      <point x="196" y="769"/>
      <point x="57" y="660"/>
      <point x="57" y="509" type="curve" smooth="yes"/>
      <point x="57" y="370"/>
      <point x="174" y="278"/>
      <point x="351" y="278" type="curve" smooth="yes"/>
      <point x="482" y="278"/>
      <point x="572" y="332"/>
      <point x="650" y="422" type="curve"/>
    </contour>
  </outline>
</glyph>
<glyph name="less" format="2">
  <advance width="614"/>
  <unicode hex="003C"/>
  <outline>
    <contour>
      <point x="45" y="245" type="line"/>
      <point x="569" y="445" type="line"/>
      <point x="569" y="560" type="line"/>
      <point x="45" y="360" type="line"/>
    </contour>
    <contour>
      <point x="45" y="360" type="line"/>
      <point x="45" y="243" type="line"/>
      <point x="569" y="33" type="line"/>
      <point x="569" y="150" type="line"/>
    </contour>
  </outline>
</glyph>
<glyph name="greater" format="2">
  <advance width="614"/>
  <unicode hex="003E"/>
  <outline>
    <contour>
      <point x="569" y="245" type="line"/>
      <point x="569" y="360" type="line"/>
      <point x="45" y="560" type="line"/>
      <point x="45" y="445" type="line"/>
    </contour>
    <contour>
      <point x="569" y="360" type="line"/>
      <point x="45" y="150" type="line"/>
      <point x="45" y="33" type="line"/>
      <point x="569" y="243" type="line"/>
    </contour>
  </outline>
</glyph>
<glyph name="question" format="2">
  <advance width="751"/>
  <unicode hex="003F"/>
  <outline>
    <contour>
      <point x="50" y="587" type="line"/>
      <point x="140" y="619"/>
      <point x="232" y="640"/>
      <point x="329" y="640" type="curve" smooth="yes"/>
      <point x="472" y="640"/>
      <point x="551" y="594"/>
      <point x="551" y="510" type="curve" smooth="yes"/>
      <point x="551" y="432"/>
      <point x="482" y="388"/>
      <point x="360" y="388" type="curve" smooth="yes"/>
      <point x="272" y="388" type="line"/>
      <point x="272" y="257" type="line"/>
      <point x="352" y="257" type="line" smooth="yes"/>
      <point x="578" y="257"/>
      <point x="711" y="356"/>
      <point x="711" y="519" type="curve" smooth="yes"/>
      <point x="711" y="682"/>
      <point x="577" y="770"/>
      <point x="340" y="770" type="curve" smooth="yes"/>
      <point x="231" y="770"/>
      <point x="134" y="750"/>
      <point x="50" y="720" type="curve"/>
    </contour>
    <component base="period" xOffset="197"/>
  </outline>
</glyph>
<glyph name="at" format="2">
  <advance width="1303"/>
  <unicode hex="0040"/>
  <outline>
    <contour>
      <point x="60" y="274" type="curve" smooth="yes"/>
      <point x="60" y="-28"/>
      <point x="286" y="-222"/>
      <point x="638" y="-222" type="curve" smooth="yes"/>
      <point x="757" y="-222"/>
      <point x="893" y="-202"/>
      <point x="984" y="-170" type="curve"/>
      <point x="997" y="-64" type="line"/>
      <point x="920" y="-107"/>
      <point x="787" y="-130"/>
      <point x="662" y="-130" type="curve" smooth="yes"/>
      <point x="358" y="-130"/>
      <point x="167" y="29"/>
      <point x="167" y="274" type="curve" smooth="yes"/>
      <point x="167" y="524"/>
      <point x="372" y="693"/>
      <point x="675" y="693" type="curve" smooth="yes"/>
      <point x="955" y="693"/>
      <point x="1136" y="567"/>
      <point x="1136" y="341" type="curve" smooth="yes"/>
      <point x="1136" y="218"/>
      <point x="1082" y="90"/>
      <point x="972" y="90" type="curve" smooth="yes"/>
      <point x="902" y="90"/>
      <point x="866" y="143"/>
      <point x="887" y="263" type="curve" smooth="yes"/>
      <point x="936" y="540" type="line"/>
      <point x="809" y="540" type="line"/>
      <point x="795" y="416" type="line"/>
      <point x="774" y="491"/>
      <point x="713" y="547"/>
      <point x="619" y="547" type="curve" smooth="yes"/>
      <point x="467" y="547"/>
      <point x="343" y="406"/>
      <point x="343" y="235" type="curve" smooth="yes"/>
      <point x="343" y="100"/>
      <point x="429" y="8"/>
      <point x="556" y="8" type="curve" smooth="yes"/>
      <point x="656" y="8"/>
      <point x="741" y="69"/>
      <point x="773" y="178" type="curve"/>
      <point x="762" y="179" type="line"/>
      <point x="736" y="57"/>
      <point x="826" y="-6"/>
      <point x="959" y="-6" type="curve" smooth="yes"/>
      <point x="1160" y="-6"/>
      <point x="1243" y="165"/>
      <point x="1243" y="340" type="curve" smooth="yes"/>
      <point x="1243" y="622"/>
      <point x="1024" y="785"/>
      <point x="684" y="785" type="curve" smooth="yes"/>
      <point x="304" y="785"/>
      <point x="60" y="585"/>
    </contour>
    <contour>
      <point x="686" y="130"/>
      <point x="598" y="130" type="curve" smooth="yes"/>
      <point x="526" y="130"/>
      <point x="483" y="178"/>
      <point x="483" y="256" type="curve" smooth="yes"/>
      <point x="483" y="355"/>
      <point x="551" y="433"/>
      <point x="639" y="433" type="curve" smooth="yes"/>
      <point x="710" y="433"/>
      <point x="754" y="385"/>
      <point x="754" y="306" type="curve" smooth="yes"/>
      <point x="754" y="206"/>
    </contour>
  </outline>
</glyph>
<glyph name="A" format="2">
  <advance width="968"/>
  <unicode hex="0041"/>
  <anchor x="484" y="0" name="bottom"/>
  <anchor x="948" y="7" name="ogonek"/>
  <anchor x="484" y="750" name="top"/>
  <outline>
    <contour>
      <point x="190" y="0" type="line"/>
      <point x="511" y="672" type="line"/>
      <point x="453" y="672" type="line"/>
      <point x="774" y="0" type="line"/>
      <point x="952" y="0" type="line"/>
      <point x="565" y="750" type="line"/>
      <point x="399" y="750" type="line"/>
      <point x="15" y="0" type="line"/>
    </contour>
    <contour>
      <point x="262" y="305" type="line"/>
      <point x="252" y="180" type="line"/>
      <point x="705" y="180" type="line"/>
      <point x="705" y="305" type="line"/>
    </contour>
  </outline>
</glyph>
<glyph name="B" format="2">
  <advance width="868"/>
  <unicode hex="0042"/>
  <guideline x="379" y="222" angle="0"/>
  <anchor x="426" y="0" name="bottom"/>
  <anchor x="434" y="375" name="center"/>
  <anchor x="426" y="750" name="top"/>
  <outline>
    <contour>
      <point x="70" y="0" type="line"/>
      <point x="580" y="0" type="line" smooth="yes"/>
      <point x="747" y="0"/>
      <point x="838" y="76"/>
      <point x="838" y="196" type="curve" smooth="yes"/>
      <point x="838" y="305"/>
      <point x="762" y="383"/>
      <point x="665" y="385" type="curve"/>
      <point x="748" y="394"/>
      <point x="810" y="460"/>
      <point x="810" y="553" type="curve" smooth="yes"/>
      <point x="810" y="673"/>
      <point x="712" y="750"/>
      <point x="534" y="750" type="curve" smooth="yes"/>
      <point x="70" y="750" type="line"/>
    </contour>
    <contour>
      <point x="220" y="442" type="line"/>
      <point x="220" y="625" type="line"/>
      <point x="516" y="625" type="line" smooth="yes"/>
      <point x="600" y="625"/>
      <point x="645" y="594"/>
      <point x="645" y="530" type="curve" smooth="yes"/>
      <point x="645" y="473"/>
      <point x="601" y="442"/>
      <point x="520" y="442" type="curve" smooth="yes"/>
    </contour>
    <contour>
      <point x="220" y="127" type="line"/>
      <point x="220" y="319" type="line"/>
      <point x="524" y="319" type="line" smooth="yes"/>
      <point x="618" y="319"/>
      <point x="673" y="282"/>
      <point x="673" y="219" type="curve" smooth="yes"/>
      <point x="673" y="161"/>
      <point x="631" y="127"/>
      <point x="562" y="127" type="curve" smooth="yes"/>
    </contour>
  </outline>
</glyph>
<glyph name="C" format="2">
  <advance width="836"/>
  <unicode hex="0043"/>
  <anchor x="439" y="0" name="bottom"/>
  <anchor x="467" y="750" name="top"/>
  <outline>
    <contour>
      <point x="787" y="571" type="curve"/>
      <point x="778" y="711" type="line"/>
      <point x="704" y="745"/>
      <point x="611" y="767"/>
      <point x="504" y="767" type="curve" smooth="yes"/>
      <point x="219" y="767"/>
      <point x="45" y="618"/>
      <point x="45" y="375" type="curve" smooth="yes"/>
      <point x="45" y="132"/>
      <point x="219" y="-18"/>
      <point x="507" y="-18" type="curve" smooth="yes"/>
      <point x="606" y="-18"/>
      <point x="704" y="-2"/>
      <point x="792" y="38" type="curve"/>
      <point x="801" y="182" type="line"/>
      <point x="710" y="138"/>
      <point x="620" y="115"/>
      <point x="525" y="115" type="curve" smooth="yes"/>
      <point x="323" y="115"/>
      <point x="210" y="205"/>
      <point x="210" y="374" type="curve" smooth="yes"/>
      <point x="210" y="547"/>
      <point x="317" y="639"/>
      <point x="514" y="639" type="curve" smooth="yes"/>
      <point x="614" y="639"/>
      <point x="706" y="612"/>
    </contour>
  </outline>
</glyph>
<glyph name="D" format="2">
  <advance width="890"/>
  <unicode hex="0044"/>
  <anchor x="430" y="0" name="bottom"/>
  <anchor x="430" y="375" name="center"/>
  <anchor x="412" y="740" name="top"/>
  <outline>
    <contour>
      <point x="70" y="0" type="line"/>
      <point x="444" y="0" type="line" smooth="yes"/>
      <point x="685" y="0"/>
      <point x="845" y="150"/>
      <point x="845" y="375" type="curve" smooth="yes"/>
      <point x="845" y="600"/>
      <point x="685" y="750"/>
      <point x="444" y="750" type="curve" smooth="yes"/>
      <point x="70" y="750" type="line"/>
    </contour>
    <contour>
      <point x="230" y="130" type="line"/>
      <point x="230" y="620" type="line"/>
      <point x="440" y="620" type="line" smooth="yes"/>
      <point x="590" y="620"/>
      <point x="685" y="521"/>
      <point x="685" y="371" type="curve" smooth="yes"/>
      <point x="685" y="223"/>
      <point x="592" y="130"/>
      <point x="440" y="130" type="curve" smooth="yes"/>
    </contour>
  </outline>
</glyph>
<glyph name="E" format="2">
  <advance width="798"/>
  <unicode hex="0045"/>
  <anchor x="402" y="0" name="bottom"/>
  <anchor x="748" y="7" name="ogonek"/>
  <anchor x="402" y="750" name="top"/>
  <anchor x="20" y="750" name="topleft"/>
  <outline>
    <contour>
      <point x="70" y="0" type="line"/>
      <point x="753" y="0" type="line"/>
      <point x="753" y="130" type="line"/>
      <point x="230" y="130" type="line"/>
      <point x="230" y="318" type="line"/>
      <point x="691" y="318" type="line"/>
      <point x="691" y="444" type="line"/>
      <point x="230" y="444" type="line"/>
      <point x="230" y="620" type="line"/>
      <point x="745" y="620" type="line"/>
      <point x="745" y="750" type="line"/>
      <point x="70" y="750" type="line"/>
    </contour>
  </outline>
</glyph>
<glyph name="F" format="2">
  <advance width="754"/>
  <unicode hex="0046"/>
  <anchor x="377" y="0" name="bottom"/>
  <anchor x="377" y="750" name="top"/>
  <outline>
    <contour>
      <point x="70" y="0" type="line"/>
      <point x="230" y="0" type="line"/>
      <point x="230" y="310" type="line"/>
      <point x="670" y="310" type="line"/>
      <point x="670" y="440" type="line"/>
      <point x="230" y="440" type="line"/>
      <point x="230" y="620" type="line"/>
      <point x="724" y="620" type="line"/>
      <point x="724" y="750" type="line"/>
      <point x="70" y="750" type="line"/>
    </contour>
  </outline>
</glyph>
<glyph name="G" format="2">
  <advance width="905"/>
  <unicode hex="0047"/>
  <anchor x="521" y="0" name="bottom"/>
  <anchor x="458" y="750" name="top"/>
  <outline>
    <contour>
      <point x="45" y="376" type="curve" smooth="yes"/>
      <point x="45" y="132"/>
      <point x="226" y="-18"/>
      <point x="523" y="-18" type="curve" smooth="yes"/>
      <point x="656" y="-18"/>
      <point x="778" y="15"/>
      <point x="855" y="73" type="curve"/>
      <point x="855" y="425" type="line"/>
      <point x="488" y="425" type="line"/>
      <point x="488" y="300" type="line"/>
      <point x="705" y="300" type="line"/>
      <point x="705" y="142" type="line"/>
      <point x="653" y="125"/>
      <point x="594" y="116"/>
      <point x="534" y="116" type="curve" smooth="yes"/>
      <point x="318" y="116"/>
      <point x="205" y="206"/>
      <point x="205" y="376" type="curve" smooth="yes"/>
      <point x="205" y="548"/>
      <point x="321" y="639"/>
      <point x="535" y="639" type="curve" smooth="yes"/>
      <point x="652" y="639"/>
      <point x="756" y="612"/>
      <point x="824" y="576" type="curve"/>
      <point x="813" y="719" type="line"/>
      <point x="741" y="747"/>
      <point x="641" y="767"/>
      <point x="529" y="767" type="curve" smooth="yes"/>
      <point x="228" y="767"/>
      <point x="45" y="618"/>
    </contour>
  </outline>
</glyph>
<glyph name="H" format="2">
  <advance width="932"/>
  <unicode hex="0048"/>
  <anchor x="466" y="0" name="bottom"/>
  <anchor x="466" y="375" name="center"/>
  <anchor x="466" y="750" name="top"/>
  <anchor x="20" y="750" name="topleft"/>
  <outline>
    <contour>
      <point x="70" y="0" type="line"/>
      <point x="230" y="0" type="line"/>
      <point x="230" y="313" type="line"/>
      <point x="702" y="313" type="line"/>
      <point x="702" y="0" type="line"/>
      <point x="862" y="0" type="line"/>
      <point x="862" y="750" type="line"/>
      <point x="702" y="750" type="line"/>
      <point x="702" y="443" type="line"/>
      <point x="230" y="443" type="line"/>
      <point x="230" y="750" type="line"/>
      <point x="70" y="750" type="line"/>
    </contour>
  </outline>
</glyph>
<glyph name="I" format="2">
  <advance width="300"/>
  <unicode hex="0049"/>
  <anchor x="150" y="0" name="bottom"/>
  <anchor x="225" y="7" name="ogonek"/>
  <anchor x="150" y="750" name="top"/>
  <anchor x="20" y="750" name="topleft"/>
  <outline>
    <contour>
      <point x="70" y="0" type="line"/>
      <point x="230" y="0" type="line"/>
      <point x="230" y="750" type="line"/>
      <point x="70" y="750" type="line"/>
    </contour>
  </outline>
</glyph>
<glyph name="J" format="2">
  <advance width="684"/>
  <unicode hex="004A"/>
  <anchor x="322" y="0" name="bottom"/>
  <anchor x="435" y="750" name="top"/>
  <outline>
    <contour>
      <point x="35" y="10" type="line"/>
      <point x="93" y="-9"/>
      <point x="166" y="-21"/>
      <point x="248" y="-21" type="curve" smooth="yes"/>
      <point x="476" y="-21"/>
      <point x="614" y="69"/>
      <point x="614" y="260" type="curve" smooth="yes"/>
      <point x="614" y="750" type="line"/>
      <point x="454" y="750" type="line"/>
      <point x="454" y="264" type="line" smooth="yes"/>
      <point x="454" y="173"/>
      <point x="371" y="115"/>
      <point x="213" y="115" type="curve" smooth="yes"/>
      <point x="155" y="115"/>
      <point x="95" y="123"/>
      <point x="35" y="142" type="curve"/>
    </contour>
    <contour>
      <point x="186" y="750" type="line"/>
      <point x="186" y="625" type="line"/>
      <point x="544" y="625" type="line"/>
      <point x="544" y="750" type="line"/>
    </contour>
  </outline>
</glyph>
<glyph name="K" format="2">
  <advance width="877"/>
  <unicode hex="004B"/>
  <anchor x="433" y="0" name="bottom"/>
  <anchor x="447" y="750" name="top"/>
  <outline>
    <contour>
      <point x="70" y="0" type="line"/>
      <point x="230" y="0" type="line"/>
      <point x="230" y="750" type="line"/>
      <point x="70" y="750" type="line"/>
    </contour>
    <contour>
      <point x="649" y="0" type="line"/>
      <point x="857" y="0" type="line"/>
      <point x="432" y="444" type="line"/>
      <point x="412" y="474" type="line"/>
      <point x="263" y="412" type="line"/>
    </contour>
    <contour>
      <point x="638" y="750" type="line"/>
      <point x="165" y="385" type="line"/>
      <point x="207" y="255" type="line"/>
      <point x="362" y="363" type="line"/>
      <point x="389" y="387" type="line"/>
      <point x="847" y="750" type="line"/>
    </contour>
  </outline>
</glyph>
<glyph name="L" format="2">
  <advance width="740"/>
  <unicode hex="004C"/>
  <anchor x="375" y="0" name="bottom"/>
  <anchor x="375" y="375" name="center"/>
  <anchor x="176" y="750" name="top"/>
  <anchor x="240" y="770" name="topright"/>
  <outline>
    <contour>
      <point x="70" y="0" type="line"/>
      <point x="230" y="0" type="line"/>
      <point x="700" y="0" type="line"/>
      <point x="700" y="130" type="line"/>
      <point x="230" y="130" type="line"/>
      <point x="230" y="750" type="line"/>
      <point x="70" y="750" type="line"/>
    </contour>
  </outline>
</glyph>
<glyph name="M" format="2">
  <advance width="1046"/>
  <unicode hex="004D"/>
  <anchor x="523" y="0" name="bottom"/>
  <anchor x="523" y="750" name="top"/>
  <outline>
    <contour>
      <point x="70" y="0" type="line"/>
      <point x="225" y="0" type="line"/>
      <point x="225" y="590" type="line"/>
      <point x="198" y="594" type="line"/>
      <point x="450" y="0" type="line"/>
      <point x="596" y="0" type="line"/>
      <point x="847" y="594" type="line"/>
      <point x="821" y="590" type="line"/>
      <point x="821" y="0" type="line"/>
      <point x="976" y="0" type="line"/>
      <point x="976" y="750" type="line"/>
      <point x="781" y="750" type="line"/>
      <point x="496" y="99" type="line"/>
      <point x="550" y="99" type="line"/>
      <point x="264" y="750" type="line"/>
      <point x="70" y="750" type="line"/>
    </contour>
  </outline>
</glyph>
<glyph name="N" format="2">
  <advance width="952"/>
  <unicode hex="004E"/>
  <anchor x="466" y="0" name="bottom"/>
  <anchor x="476" y="750" name="top"/>
  <outline>
    <contour>
      <point x="70" y="0" type="line"/>
      <point x="230" y="0" type="line"/>
      <point x="230" y="613" type="line"/>
      <point x="185" y="596" type="line"/>
      <point x="722" y="0" type="line"/>
      <point x="882" y="0" type="line"/>
      <point x="882" y="750" type="line"/>
      <point x="722" y="750" type="line"/>
      <point x="722" y="137" type="line"/>
      <point x="767" y="154" type="line"/>
      <point x="230" y="750" type="line"/>
      <point x="70" y="750" type="line"/>
    </contour>
  </outline>
</glyph>
<glyph name="O" format="2">
  <advance width="980"/>
  <unicode hex="004F"/>
  <anchor x="490" y="0" name="bottom"/>
  <anchor x="490" y="375" name="center"/>
  <anchor x="882" y="10" name="ogonek"/>
  <anchor x="490" y="750" name="top"/>
  <anchor x="20" y="750" name="topleft"/>
  <anchor x="960" y="750" name="topright"/>
  <outline>
    <contour>
      <point x="490" y="-18" type="curve" smooth="yes"/>
      <point x="762" y="-18"/>
      <point x="935" y="137"/>
      <point x="935" y="375" type="curve" smooth="yes"/>
      <point x="935" y="612"/>
      <point x="762" y="767"/>
      <point x="490" y="767" type="curve" smooth="yes"/>
      <point x="218" y="767"/>
      <point x="45" y="612"/>
      <point x="45" y="375" type="curve" smooth="yes"/>
      <point x="45" y="137"/>
      <point x="218" y="-18"/>
    </contour>
    <contour>
      <point x="490" y="114" type="curve" smooth="yes"/>
      <point x="317" y="114"/>
      <point x="205" y="216"/>
      <point x="205" y="375" type="curve" smooth="yes"/>
      <point x="205" y="534"/>
      <point x="317" y="637"/>
      <point x="490" y="637" type="curve" smooth="yes"/>
      <point x="663" y="637"/>
      <point x="775" y="534"/>
      <point x="775" y="375" type="curve" smooth="yes"/>
      <point x="775" y="216"/>
      <point x="663" y="114"/>
    </contour>
  </outline>
</glyph>
<glyph name="P" format="2">
  <advance width="862"/>
  <unicode hex="0050"/>
  <anchor x="431" y="0" name="bottom"/>
  <anchor x="431" y="750" name="top"/>
  <outline>
    <contour>
      <point x="70" y="0" type="line"/>
      <point x="230" y="0" type="line"/>
      <point x="230" y="280" type="line"/>
      <point x="576" y="280" type="line" smooth="yes"/>
      <point x="702" y="280"/>
      <point x="827" y="355"/>
      <point x="827" y="515" type="curve" smooth="yes"/>
      <point x="827" y="639"/>
      <point x="752" y="750"/>
      <point x="576" y="750" type="curve" smooth="yes"/>
      <point x="70" y="750" type="line"/>
    </contour>
    <contour>
      <point x="230" y="410" type="line"/>
      <point x="230" y="620" type="line"/>
      <point x="519" y="620" type="line" smooth="yes"/>
      <point x="623" y="620"/>
      <point x="667" y="589"/>
      <point x="667" y="515" type="curve" smooth="yes"/>
      <point x="667" y="441"/>
      <point x="626" y="410"/>
      <point x="526" y="410" type="curve" smooth="yes"/>
    </contour>
  </outline>
</glyph>
<glyph name="Q" format="2">
  <advance width="980"/>
  <unicode hex="0051"/>
  <anchor x="490" y="0" name="bottom"/>
  <anchor x="490" y="750" name="top"/>
  <outline>
    <contour>
      <point x="490" y="-18" type="curve" smooth="yes"/>
      <point x="762" y="-18"/>
      <point x="935" y="137"/>
      <point x="935" y="375" type="curve" smooth="yes"/>
      <point x="935" y="612"/>
      <point x="762" y="767"/>
      <point x="490" y="767" type="curve" smooth="yes"/>
      <point x="218" y="767"/>
      <point x="45" y="612"/>
      <point x="45" y="375" type="curve" smooth="yes"/>
      <point x="45" y="137"/>
      <point x="218" y="-18"/>
    </contour>
    <contour>
      <point x="490" y="114" type="curve" smooth="yes"/>
      <point x="317" y="114"/>
      <point x="205" y="216"/>
      <point x="205" y="375" type="curve" smooth="yes"/>
      <point x="205" y="534"/>
      <point x="317" y="637"/>
      <point x="490" y="637" type="curve" smooth="yes"/>
      <point x="663" y="637"/>
      <point x="775" y="534"/>
      <point x="775" y="375" type="curve" smooth="yes"/>
      <point x="775" y="216"/>
      <point x="663" y="114"/>
    </contour>
    <contour>
      <point x="429" y="44" type="line"/>
      <point x="655" y="-215" type="line"/>
      <point x="854" y="-215" type="line"/>
      <point x="576" y="94" type="line"/>
    </contour>
  </outline>
</glyph>
<glyph name="R" format="2">
  <advance width="880"/>
  <unicode hex="0052"/>
  <anchor x="454" y="0" name="bottom"/>
  <anchor x="433" y="750" name="top"/>
  <outline>
    <contour>
      <point x="70" y="0" type="line"/>
      <point x="230" y="0" type="line"/>
      <point x="230" y="295" type="line"/>
      <point x="424" y="295" type="line"/>
      <point x="652" y="0" type="line"/>
      <point x="848" y="0" type="line"/>
      <point x="599" y="309" type="line"/>
      <point x="748" y="316"/>
      <point x="837" y="400"/>
      <point x="837" y="523" type="curve" smooth="yes"/>
      <point x="837" y="656"/>
      <point x="739" y="750"/>
      <point x="563" y="750" type="curve" smooth="yes"/>
      <point x="70" y="750" type="line"/>
    </contour>
    <contour>
      <point x="230" y="425" type="line"/>
      <point x="230" y="620" type="line"/>
      <point x="529" y="620" type="line" smooth="yes"/>
      <point x="633" y="620"/>
      <point x="677" y="591"/>
      <point x="677" y="522" type="curve" smooth="yes"/>
      <point x="677" y="454"/>
      <point x="636" y="425"/>
      <point x="536" y="425" type="curve" smooth="yes"/>
    </contour>
  </outline>
</glyph>
<glyph name="S" format="2">
  <advance width="830"/>
  <unicode hex="0053"/>
  <guideline x="424"/>
  <anchor x="422" y="0" name="bottom"/>
  <anchor x="422" y="750" name="top"/>
  <outline>
    <contour>
      <point x="60" y="561" type="curve" smooth="yes"/>
      <point x="57" y="245"/>
      <point x="634" y="384"/>
      <point x="634" y="211" type="curve" smooth="yes"/>
      <point x="634" y="153"/>
      <point x="573" y="117"/>
      <point x="442" y="117" type="curve" smooth="yes"/>
      <point x="304" y="117"/>
      <point x="190" y="155"/>
      <point x="59" y="217" type="curve"/>
      <point x="69" y="64" type="line"/>
      <point x="174" y="14"/>
      <point x="304" y="-18"/>
      <point x="441" y="-18" type="curve" smooth="yes"/>
      <point x="669" y="-18"/>
      <point x="792" y="65"/>
      <point x="792" y="214" type="curve" smooth="yes"/>
      <point x="792" y="532"/>
      <point x="215" y="401"/>
      <point x="215" y="558" type="curve" smooth="yes"/>
      <point x="215" y="611"/>
      <point x="275" y="640"/>
      <point x="420" y="640" type="curve" smooth="yes"/>
      <point x="552" y="640"/>
      <point x="666" y="614"/>
      <point x="756" y="583" type="curve"/>
      <point x="747" y="723" type="line"/>
      <point x="666" y="746"/>
      <point x="551" y="768"/>
      <point x="417" y="768" type="curve" smooth="yes"/>
      <point x="176" y="768"/>
      <point x="61" y="698"/>
    </contour>
  </outline>
</glyph>
<glyph name="T" format="2">
  <advance width="830"/>
  <unicode hex="0054"/>
  <anchor x="415" y="0" name="bottom"/>
  <anchor x="415" y="375" name="center"/>
  <anchor x="415" y="750" name="top"/>
  <outline>
    <contour>
      <point x="40" y="620" type="line"/>
      <point x="335" y="620" type="line"/>
      <point x="335" y="0" type="line"/>
      <point x="495" y="0" type="line"/>
      <point x="495" y="620" type="line"/>
      <point x="790" y="620" type="line"/>
      <point x="790" y="750" type="line"/>
      <point x="40" y="750" type="line"/>
    </contour>
  </outline>
</glyph>
<glyph name="U" format="2">
  <advance width="916"/>
  <unicode hex="0055"/>
  <anchor x="458" y="0" name="bottom"/>
  <anchor x="609" y="10" name="ogonek"/>
  <anchor x="458" y="750" name="top"/>
  <anchor x="896" y="750" name="topright"/>
  <outline>
    <contour>
      <point x="70" y="299" type="line" smooth="yes"/>
      <point x="70" y="107"/>
      <point x="223" y="-18"/>
      <point x="459" y="-18" type="curve" smooth="yes"/>
      <point x="698" y="-18"/>
      <point x="846" y="111"/>
      <point x="846" y="319" type="curve" smooth="yes"/>
      <point x="846" y="750" type="line"/>
      <point x="686" y="750" type="line"/>
      <point x="686" y="308" type="line" smooth="yes"/>
      <point x="686" y="190"/>
      <point x="598" y="114"/>
      <point x="460" y="114" type="curve" smooth="yes"/>
      <point x="320" y="114"/>
      <point x="230" y="190"/>
      <point x="230" y="308" type="curve" smooth="yes"/>
      <point x="230" y="750" type="line"/>
      <point x="70" y="750" type="line"/>
    </contour>
  </outline>
</glyph>
<glyph name="V" format="2">
  <advance width="920"/>
  <unicode hex="0056"/>
  <anchor x="460" y="0" name="bottom"/>
  <anchor x="460" y="750" name="top"/>
  <outline>
    <contour>
      <point x="198" y="750" type="line"/>
      <point x="20" y="750" type="line"/>
      <point x="372" y="0" type="line"/>
      <point x="550" y="0" type="line"/>
      <point x="900" y="750" type="line"/>
      <point x="725" y="750" type="line"/>
      <point x="436" y="98" type="line"/>
      <point x="491" y="98" type="line"/>
    </contour>
  </outline>
</glyph>
<glyph name="W" format="2">
  <advance width="1299"/>
  <unicode hex="0057"/>
  <anchor x="650" y="0" name="bottom"/>
  <anchor x="650" y="750" name="top"/>
  <outline>
    <contour>
      <point x="32" y="750" type="line"/>
      <point x="294" y="0" type="line"/>
      <point x="482" y="0" type="line"/>
      <point x="667" y="637" type="line"/>
      <point x="629" y="637" type="line"/>
      <point x="817" y="0" type="line"/>
      <point x="1009" y="0" type="line"/>
      <point x="1272" y="750" type="line"/>
      <point x="1102" y="750" type="line"/>
      <point x="899" y="119" type="line"/>
      <point x="940" y="119" type="line"/>
      <point x="745" y="750" type="line"/>
      <point x="559" y="750" type="line"/>
      <point x="365" y="118" type="line"/>
      <point x="405" y="119" type="line"/>
      <point x="205" y="750" type="line"/>
    </contour>
  </outline>
</glyph>
<glyph name="X" format="2">
  <advance width="916"/>
  <unicode hex="0058"/>
  <anchor x="458" y="0" name="bottom"/>
  <anchor x="458" y="750" name="top"/>
  <outline>
    <contour>
      <point x="686" y="0" type="line"/>
      <point x="893" y="0" type="line"/>
      <point x="554" y="381" type="line"/>
      <point x="883" y="750" type="line"/>
      <point x="678" y="750" type="line"/>
      <point x="460" y="493" type="line"/>
      <point x="249" y="750" type="line"/>
      <point x="43" y="750" type="line"/>
      <point x="350" y="390" type="line"/>
      <point x="22" y="0" type="line"/>
      <point x="228" y="0" type="line"/>
      <point x="449" y="272" type="line"/>
    </contour>
  </outline>
</glyph>
<glyph name="Y" format="2">
  <advance width="860"/>
  <unicode hex="0059"/>
  <anchor x="430" y="0" name="bottom"/>
  <anchor x="430" y="750" name="top"/>
  <anchor x="20" y="750" name="topleft"/>
  <outline>
    <contour>
      <point x="188" y="750" type="line"/>
      <point x="0" y="750" type="line"/>
      <point x="354" y="260" type="line"/>
      <point x="508" y="260" type="line"/>
      <point x="860" y="750" type="line"/>
      <point x="675" y="750" type="line"/>
      <point x="394" y="353" type="line"/>
      <point x="472" y="353" type="line"/>
    </contour>
    <contour>
      <point x="351" y="0" type="line"/>
      <point x="511" y="0" type="line"/>
      <point x="511" y="335" type="line"/>
      <point x="351" y="335" type="line"/>
    </contour>
  </outline>
</glyph>
<glyph name="Z" format="2">
  <advance width="870"/>
  <unicode hex="005A"/>
  <anchor x="440" y="0" name="bottom"/>
  <anchor x="440" y="375" name="center"/>
  <anchor x="440" y="750" name="top"/>
  <outline>
    <contour>
      <point x="70" y="0" type="line"/>
      <point x="800" y="0" type="line"/>
      <point x="800" y="130" type="line"/>
      <point x="221" y="129" type="line"/>
      <point x="245" y="108" type="line"/>
      <point x="797" y="611" type="line"/>
      <point x="797" y="750" type="line"/>
      <point x="90" y="750" type="line"/>
      <point x="90" y="620" type="line"/>
      <point x="652" y="620" type="line"/>
      <point x="625" y="641" type="line"/>
      <point x="70" y="140" type="line"/>
    </contour>
  </outline>
</glyph>
<glyph name="bracketleft" format="2">
  <advance width="401"/>
  <unicode hex="005B"/>
  <outline>
    <contour>
      <point x="361" y="670" type="line"/>
      <point x="361" y="785" type="line"/>
      <point x="60" y="785" type="line"/>
      <point x="60" y="-215" type="line"/>
      <point x="361" y="-215" type="line"/>
      <point x="361" y="-100" type="line"/>
      <point x="200" y="-100" type="line"/>
      <point x="200" y="670" type="line"/>
    </contour>
  </outline>
</glyph>
<glyph name="backslash" format="2">
  <advance width="510"/>
  <unicode hex="005C"/>
  <outline>
    <contour>
      <point x="478" y="-215" type="line"/>
      <point x="139" y="785" type="line"/>
      <point x="30" y="785" type="line"/>
      <point x="369" y="-215" type="line"/>
    </contour>
  </outline>
</glyph>
<glyph name="asciicircum" format="2">
  <advance width="610"/>
  <unicode hex="005E"/>
  <anchor x="304" y="560" name="_top"/>
  <anchor x="304" y="776" name="top"/>
  <outline>
    <contour>
      <point x="207" y="775" type="line"/>
      <point x="69" y="554" type="line"/>
      <point x="210" y="554" type="line"/>
      <point x="339" y="766" type="line"/>
      <point x="269" y="766" type="line"/>
      <point x="398" y="554" type="line"/>
      <point x="539" y="554" type="line"/>
      <point x="401" y="775" type="line"/>
    </contour>
  </outline>
</glyph>
<glyph name="underscore" format="2">
  <advance width="800"/>
  <unicode hex="005F"/>
  <outline>
    <contour>
      <point x="50" y="-115" type="line"/>
      <point x="50" y="-215" type="line"/>
      <point x="750" y="-215" type="line"/>
      <point x="750" y="-115" type="line"/>
    </contour>
  </outline>
</glyph>
<glyph name="a" format="2">
  <advance width="670"/>
  <unicode hex="0061"/>
  <anchor x="331" y="0" name="bottom"/>
  <anchor x="620" y="0" name="ogonek"/>
  <anchor x="351" y="560" name="top"/>
  <outline>
    <contour>
      <point x="35" y="134" type="curve" smooth="yes"/>
      <point x="35" y="39"/>
      <point x="107" y="-18"/>
      <point x="229" y="-18" type="curve" smooth="yes"/>
      <point x="338" y="-18"/>
      <point x="420" y="30"/>
      <point x="474" y="100" type="curve"/>
      <point x="474" y="0" type="line"/>
      <point x="620" y="0" type="line"/>
      <point x="620" y="334" type="line" smooth="yes"/>
      <point x="620" y="490"/>
      <point x="512" y="577"/>
      <point x="319" y="577" type="curve" smooth="yes"/>
      <point x="228" y="577"/>
      <point x="155" y="558"/>
      <point x="81" y="523" type="curve"/>
      <point x="81" y="413" type="line"/>
      <point x="174" y="448"/>
      <point x="235" y="462"/>
      <point x="304" y="462" type="curve" smooth="yes"/>
      <point x="412" y="462"/>
      <point x="473" y="420"/>
      <point x="473" y="345" type="curve" smooth="yes"/>
      <point x="473" y="326" type="line"/>
      <point x="436" y="326" type="line" smooth="yes"/>
      <point x="166" y="326"/>
      <point x="35" y="263"/>
    </contour>
    <contour>
      <point x="178" y="155" type="curve" smooth="yes"/>
      <point x="178" y="208"/>
      <point x="245" y="236"/>
      <point x="440" y="236" type="curve" smooth="yes"/>
      <point x="473" y="236" type="line"/>
      <point x="473" y="167" type="line"/>
      <point x="407" y="117"/>
      <point x="340" y="91"/>
      <point x="276" y="91" type="curve" smooth="yes"/>
      <point x="216" y="91"/>
      <point x="178" y="115"/>
    </contour>
  </outline>
</glyph>
<glyph name="b" format="2">
  <advance width="755"/>
  <unicode hex="0062"/>
  <anchor x="378" y="0" name="bottom"/>
  <anchor x="378" y="785" name="top"/>
  <outline>
    <contour>
      <point x="445" y="577" type="curve" smooth="yes"/>
      <point x="350" y="577"/>
      <point x="262" y="531"/>
      <point x="211" y="451" type="curve"/>
      <point x="211" y="785" type="line"/>
      <point x="61" y="785" type="line"/>
      <point x="61" y="0" type="line"/>
      <point x="211" y="0" type="line"/>
      <point x="211" y="101" type="line"/>
      <point x="267" y="24"/>
      <point x="348" y="-21"/>
      <point x="446" y="-21" type="curve" smooth="yes"/>
      <point x="608" y="-21"/>
      <point x="720" y="102"/>
      <point x="720" y="276" type="curve" smooth="yes"/>
      <point x="720" y="459"/>
      <point x="597" y="577"/>
    </contour>
    <contour>
      <point x="388" y="458" type="curve" smooth="yes"/>
      <point x="497" y="458"/>
      <point x="566" y="386"/>
      <point x="566" y="278" type="curve" smooth="yes"/>
      <point x="566" y="170"/>
      <point x="496" y="98"/>
      <point x="388" y="98" type="curve" smooth="yes"/>
      <point x="280" y="98"/>
      <point x="206" y="169"/>
      <point x="206" y="275" type="curve" smooth="yes"/>
      <point x="206" y="285" type="line" smooth="yes"/>
      <point x="206" y="389"/>
      <point x="281" y="458"/>
    </contour>
  </outline>
</glyph>
<glyph name="c" format="2">
  <advance width="638"/>
  <unicode hex="0063"/>
  <guideline x="526" y="150" angle="180"/>
  <anchor x="321" y="0" name="bottom"/>
  <anchor x="351" y="560" name="top"/>
  <outline>
    <contour>
      <point x="373" y="577" type="curve" smooth="yes"/>
      <point x="164" y="577"/>
      <point x="35" y="463"/>
      <point x="35" y="279" type="curve" smooth="yes"/>
      <point x="35" y="94"/>
      <point x="165" y="-21"/>
      <point x="374" y="-21" type="curve" smooth="yes"/>
      <point x="464" y="-21"/>
      <point x="536" y="-4"/>
      <point x="598" y="31" type="curve"/>
      <point x="608" y="155" type="line"/>
      <point x="555" y="122"/>
      <point x="474" y="103"/>
      <point x="404" y="103" type="curve" smooth="yes"/>
      <point x="267" y="103"/>
      <point x="189" y="173"/>
      <point x="189" y="281" type="curve" smooth="yes"/>
      <point x="189" y="391"/>
      <point x="265" y="457"/>
      <point x="392" y="457" type="curve" smooth="yes"/>
      <point x="456" y="457"/>
      <point x="519" y="441"/>
      <point x="597" y="403" type="curve"/>
      <point x="592" y="528" type="line"/>
      <point x="518" y="562"/>
      <point x="450" y="577"/>
    </contour>
  </outline>
</glyph>
<glyph name="d" format="2">
  <advance width="764"/>
  <unicode hex="0064"/>
  <anchor x="382" y="0" name="bottom"/>
  <anchor x="382" y="280" name="center"/>
  <anchor x="382" y="785" name="top"/>
  <anchor x="673" y="785" name="topright"/>
  <outline>
    <contour>
      <point x="315" y="577" type="curve" smooth="yes"/>
      <point x="154" y="577"/>
      <point x="35" y="459"/>
      <point x="35" y="280" type="curve" smooth="yes"/>
      <point x="35" y="103"/>
      <point x="155" y="-21"/>
      <point x="315" y="-21" type="curve" smooth="yes"/>
      <point x="411" y="-21"/>
      <point x="491" y="24"/>
      <point x="544" y="111" type="curve"/>
      <point x="544" y="0" type="line"/>
      <point x="694" y="0" type="line"/>
      <point x="694" y="785" type="line"/>
      <point x="544" y="785" type="line"/>
      <point x="544" y="456" type="line"/>
      <point x="498" y="533"/>
      <point x="413" y="577"/>
    </contour>
    <contour>
      <point x="369" y="458" type="curve" smooth="yes"/>
      <point x="476" y="458"/>
      <point x="549" y="389"/>
      <point x="549" y="285" type="curve" smooth="yes"/>
      <point x="549" y="275" type="line" smooth="yes"/>
      <point x="549" y="169"/>
      <point x="477" y="98"/>
      <point x="369" y="98" type="curve" smooth="yes"/>
      <point x="260" y="98"/>
      <point x="189" y="170"/>
      <point x="189" y="278" type="curve" smooth="yes"/>
      <point x="189" y="386"/>
      <point x="260" y="458"/>
    </contour>
  </outline>
</glyph>
<glyph name="e" format="2">
  <advance width="685"/>
  <unicode hex="0065"/>
  <anchor x="335" y="0" name="bottom"/>
  <anchor x="603" y="10" name="ogonek"/>
  <anchor x="345" y="560" name="top"/>
  <outline>
    <contour>
      <point x="35" y="279" type="curve" smooth="yes"/>
      <point x="35" y="97"/>
      <point x="179" y="-21"/>
      <point x="400" y="-21" type="curve" smooth="yes"/>
      <point x="492" y="-21"/>
      <point x="571" y="-3"/>
      <point x="634" y="23" type="curve"/>
      <point x="649" y="139" type="line"/>
      <point x="568" y="114"/>
      <point x="495" y="99"/>
      <point x="420" y="99" type="curve" smooth="yes"/>
      <point x="286" y="99"/>
      <point x="203" y="153"/>
      <point x="183" y="245" type="curve"/>
      <point x="650" y="245" type="line"/>
      <point x="650" y="317" type="line" smooth="yes"/>
      <point x="650" y="475"/>
      <point x="531" y="577"/>
      <point x="352" y="577" type="curve" smooth="yes"/>
      <point x="159" y="577"/>
      <point x="35" y="461"/>
    </contour>
    <contour>
      <point x="181" y="335" type="line"/>
      <point x="187" y="420"/>
      <point x="247" y="465"/>
      <point x="351" y="465" type="curve" smooth="yes"/>
      <point x="452" y="465"/>
      <point x="507" y="422"/>
      <point x="511" y="335" type="curve"/>
    </contour>
  </outline>
</glyph>
<glyph name="f" format="2">
  <advance width="588"/>
  <unicode hex="0066"/>
  <anchor x="290" y="0" name="bottom"/>
  <anchor x="290" y="785" name="top"/>
  <outline>
    <contour>
      <point x="10" y="445" type="line"/>
      <point x="127" y="445" type="line"/>
      <point x="127" y="0" type="line"/>
      <point x="277" y="0" type="line"/>
      <point x="277" y="445" type="line"/>
      <point x="530" y="445" type="line"/>
      <point x="530" y="560" type="line"/>
      <point x="277" y="560" type="line"/>
      <point x="277" y="565" type="line" smooth="yes"/>
      <point x="277" y="639"/>
      <point x="329" y="670"/>
      <point x="430" y="670" type="curve" smooth="yes"/>
      <point x="487" y="670"/>
      <point x="539" y="663"/>
      <point x="592" y="644" type="curve"/>
      <point x="587" y="763" type="line"/>
      <point x="528" y="781"/>
      <point x="470" y="790"/>
      <point x="402" y="790" type="curve" smooth="yes"/>
      <point x="229" y="790"/>
      <point x="127" y="708"/>
      <point x="127" y="568" type="curve" smooth="yes"/>
      <point x="127" y="560" type="line"/>
      <point x="10" y="560" type="line"/>
    </contour>
  </outline>
</glyph>
<glyph name="g" format="2">
  <advance width="739"/>
  <unicode hex="0067"/>
  <anchor x="382" y="-215" name="bottom"/>
  <anchor x="382" y="560" name="top"/>
  <outline>
    <contour>
      <point x="40" y="299" type="curve" smooth="yes"/>
      <point x="40" y="138"/>
      <point x="160" y="15"/>
      <point x="314" y="15" type="curve" smooth="yes"/>
      <point x="406" y="15"/>
      <point x="491" y="59"/>
      <point x="539" y="140" type="curve"/>
      <point x="539" y="72" type="line" smooth="yes"/>
      <point x="539" y="-50"/>
      <point x="445" y="-104"/>
      <point x="308" y="-104" type="curve" smooth="yes"/>
      <point x="230" y="-104"/>
      <point x="152" y="-87"/>
      <point x="74" y="-53" type="curve"/>
      <point x="90" y="-180" type="line"/>
      <point x="158" y="-210"/>
      <point x="239" y="-225"/>
      <point x="323" y="-225" type="curve" smooth="yes"/>
      <point x="509" y="-225"/>
      <point x="689" y="-152"/>
      <point x="689" y="82" type="curve" smooth="yes"/>
      <point x="689" y="560" type="line"/>
      <point x="539" y="560" type="line"/>
      <point x="539" y="471" type="line"/>
      <point x="493" y="533"/>
      <point x="408" y="577"/>
      <point x="314" y="577" type="curve" smooth="yes"/>
      <point x="159" y="577"/>
      <point x="40" y="458"/>
    </contour>
    <contour>
      <point x="194" y="294" type="curve" smooth="yes"/>
      <point x="194" y="395"/>
      <point x="265" y="469"/>
      <point x="370" y="469" type="curve" smooth="yes"/>
      <point x="471" y="469"/>
      <point x="544" y="400"/>
      <point x="544" y="291" type="curve" smooth="yes"/>
      <point x="544" y="281" type="line" smooth="yes"/>
      <point x="544" y="186"/>
      <point x="470" y="123"/>
      <point x="370" y="123" type="curve" smooth="yes"/>
      <point x="263" y="123"/>
      <point x="194" y="194"/>
    </contour>
  </outline>
</glyph>
<glyph name="h" format="2">
  <advance width="718"/>
  <unicode hex="0068"/>
  <anchor x="360" y="0" name="bottom"/>
  <anchor x="360" y="393" name="center"/>
  <anchor x="360" y="785" name="top"/>
  <outline>
    <contour>
      <point x="198" y="329" type="line"/>
      <point x="237" y="417"/>
      <point x="295" y="460"/>
      <point x="374" y="460" type="curve" smooth="yes"/>
      <point x="459" y="460"/>
      <point x="511" y="410"/>
      <point x="511" y="328" type="curve" smooth="yes"/>
      <point x="511" y="0" type="line"/>
      <point x="661" y="0" type="line"/>
      <point x="661" y="358" type="line" smooth="yes"/>
      <point x="661" y="498"/>
      <point x="581" y="577"/>
      <point x="438" y="577" type="curve" smooth="yes"/>
      <point x="316" y="577"/>
      <point x="237" y="520"/>
      <point x="196" y="402" type="curve"/>
    </contour>
    <contour>
      <point x="61" y="0" type="line"/>
      <point x="211" y="0" type="line"/>
      <point x="211" y="411" type="line"/>
      <point x="211" y="417" type="line"/>
      <point x="211" y="785" type="line"/>
      <point x="61" y="785" type="line"/>
    </contour>
  </outline>
</glyph>
<glyph name="k" format="2">
  <advance width="708"/>
  <unicode hex="006B"/>
  <anchor x="348" y="0" name="bottom"/>
  <anchor x="355" y="785" name="top"/>
  <outline>
    <contour>
      <point x="263" y="296" type="line"/>
      <point x="515" y="0" type="line"/>
      <point x="697" y="0" type="line"/>
      <point x="367" y="381" type="line"/>
    </contour>
    <contour>
      <point x="183" y="177" type="line"/>
      <point x="669" y="560" type="line"/>
      <point x="461" y="560" type="line"/>
      <point x="172" y="328" type="line"/>
    </contour>
    <contour>
      <point x="61" y="785" type="line"/>
      <point x="61" y="0" type="line"/>
      <point x="211" y="0" type="line"/>
      <point x="211" y="785" type="line"/>
    </contour>
  </outline>
</glyph>
<glyph name="l" format="2">
  <advance width="270"/>
  <unicode hex="006C"/>
  <anchor x="138" y="0" name="bottom"/>
  <anchor x="135" y="393" name="center"/>
  <anchor x="155" y="785" name="top"/>
  <anchor x="210" y="785" name="topright"/>
  <outline>
    <contour>
      <point x="60" y="785" type="line"/>
      <point x="60" y="0" type="line"/>
      <point x="210" y="0" type="line"/>
      <point x="210" y="785" type="line"/>
    </contour>
  </outline>
</glyph>
<glyph name="m" format="2">
  <advance width="1108"/>
  <unicode hex="006D"/>
  <anchor x="555" y="0" name="bottom"/>
  <anchor x="555" y="560" name="top"/>
  <outline>
    <contour>
      <point x="198" y="329" type="line"/>
      <point x="239" y="422"/>
      <point x="284" y="460"/>
      <point x="351" y="460" type="curve" smooth="yes"/>
      <point x="430" y="460"/>
      <point x="481" y="409"/>
      <point x="481" y="328" type="curve" smooth="yes"/>
      <point x="481" y="0" type="line"/>
      <point x="631" y="0" type="line"/>
      <point x="631" y="358" type="line" smooth="yes"/>
      <point x="631" y="497"/>
      <point x="553" y="577"/>
      <point x="417" y="577" type="curve" smooth="yes"/>
      <point x="307" y="577"/>
      <point x="239" y="523"/>
      <point x="196" y="402" type="curve"/>
    </contour>
    <contour>
      <point x="61" y="0" type="line"/>
      <point x="211" y="0" type="line"/>
      <point x="211" y="408" type="line"/>
      <point x="211" y="415" type="line"/>
      <point x="211" y="560" type="line"/>
      <point x="61" y="560" type="line"/>
    </contour>
    <contour>
      <point x="618" y="329" type="line"/>
      <point x="659" y="422"/>
      <point x="704" y="460"/>
      <point x="771" y="460" type="curve" smooth="yes"/>
      <point x="850" y="460"/>
      <point x="901" y="409"/>
      <point x="901" y="328" type="curve" smooth="yes"/>
      <point x="901" y="0" type="line"/>
      <point x="1051" y="0" type="line"/>
      <point x="1051" y="358" type="line" smooth="yes"/>
      <point x="1051" y="497"/>
      <point x="973" y="577"/>
      <point x="837" y="577" type="curve" smooth="yes"/>
      <point x="729" y="577"/>
      <point x="660" y="525"/>
      <point x="616" y="413" type="curve"/>
    </contour>
  </outline>
</glyph>
<glyph name="n" format="2">
  <advance width="718"/>
  <unicode hex="006E"/>
  <anchor x="360" y="0" name="bottom"/>
  <anchor x="360" y="560" name="top"/>
  <outline>
    <contour>
      <point x="198" y="329" type="line"/>
      <point x="237" y="417"/>
      <point x="295" y="460"/>
      <point x="374" y="460" type="curve" smooth="yes"/>
      <point x="459" y="460"/>
      <point x="511" y="410"/>
      <point x="511" y="328" type="curve" smooth="yes"/>
      <point x="511" y="0" type="line"/>
      <point x="661" y="0" type="line"/>
      <point x="661" y="358" type="line" smooth="yes"/>
      <point x="661" y="498"/>
      <point x="581" y="577"/>
      <point x="438" y="577" type="curve" smooth="yes"/>
      <point x="316" y="577"/>
      <point x="237" y="520"/>
      <point x="196" y="402" type="curve"/>
    </contour>
    <contour>
      <point x="61" y="0" type="line"/>
      <point x="211" y="0" type="line"/>
      <point x="211" y="424" type="line"/>
      <point x="211" y="433" type="line"/>
      <point x="211" y="560" type="line"/>
      <point x="61" y="560" type="line"/>
    </contour>
  </outline>
</glyph>
<glyph name="o" format="2">
  <advance width="740"/>
  <unicode hex="006F"/>
  <note>
t
</note>
  <anchor x="370" y="0" name="bottom"/>
  <anchor x="370" y="280" name="center"/>
  <anchor x="666" y="10" name="ogonek"/>
  <anchor x="370" y="560" name="top"/>
  <anchor x="720" y="560" name="topright"/>
  <outline>
    <contour>
      <point x="370" y="-21" type="curve" smooth="yes"/>
      <point x="574" y="-21"/>
      <point x="705" y="99"/>
      <point x="705" y="277" type="curve" smooth="yes"/>
      <point x="705" y="458"/>
      <point x="574" y="577"/>
      <point x="370" y="577" type="curve" smooth="yes"/>
      <point x="167" y="577"/>
      <point x="35" y="458"/>
      <point x="35" y="277" type="curve" smooth="yes"/>
      <point x="35" y="99"/>
      <point x="166" y="-21"/>
    </contour>
    <contour>
      <point x="370" y="100" type="curve" smooth="yes"/>
      <point x="263" y="100"/>
      <point x="189" y="169"/>
      <point x="189" y="277" type="curve" smooth="yes"/>
      <point x="189" y="387"/>
      <point x="263" y="457"/>
      <point x="370" y="457" type="curve" smooth="yes"/>
      <point x="477" y="457"/>
      <point x="551" y="387"/>
      <point x="551" y="277" type="curve" smooth="yes"/>
      <point x="551" y="169"/>
      <point x="477" y="100"/>
    </contour>
  </outline>
</glyph>
<glyph name="p" format="2">
  <advance width="755"/>
  <unicode hex="0070"/>
  <anchor x="369" y="0" name="bottom"/>
  <anchor x="369" y="560" name="top"/>
  <outline>
    <contour>
      <point x="440" y="-21" type="curve" smooth="yes"/>
      <point x="601" y="-21"/>
      <point x="720" y="97"/>
      <point x="720" y="276" type="curve" smooth="yes"/>
      <point x="720" y="453"/>
      <point x="600" y="577"/>
      <point x="440" y="577" type="curve" smooth="yes"/>
      <point x="344" y="577"/>
      <point x="264" y="532"/>
      <point x="211" y="445" type="curve"/>
      <point x="211" y="560" type="line"/>
      <point x="61" y="560" type="line"/>
      <point x="61" y="-215" type="line"/>
      <point x="211" y="-215" type="line"/>
      <point x="211" y="100" type="line"/>
      <point x="257" y="23"/>
      <point x="342" y="-21"/>
    </contour>
    <contour>
      <point x="386" y="98" type="curve" smooth="yes"/>
      <point x="279" y="98"/>
      <point x="206" y="167"/>
      <point x="206" y="271" type="curve" smooth="yes"/>
      <point x="206" y="281" type="line" smooth="yes"/>
      <point x="206" y="387"/>
      <point x="278" y="458"/>
      <point x="386" y="458" type="curve" smooth="yes"/>
      <point x="495" y="458"/>
      <point x="566" y="386"/>
      <point x="566" y="278" type="curve" smooth="yes"/>
      <point x="566" y="170"/>
      <point x="495" y="98"/>
    </contour>
  </outline>
</glyph>
<glyph name="q" format="2">
  <advance width="764"/>
  <unicode hex="0071"/>
  <anchor x="382" y="0" name="bottom"/>
  <anchor x="382" y="560" name="top"/>
  <outline>
    <contour>
      <point x="310" y="-21" type="curve" smooth="yes"/>
      <point x="405" y="-21"/>
      <point x="493" y="25"/>
      <point x="544" y="105" type="curve"/>
      <point x="544" y="-215" type="line"/>
      <point x="694" y="-215" type="line"/>
      <point x="694" y="560" type="line"/>
      <point x="544" y="560" type="line"/>
      <point x="544" y="455" type="line"/>
      <point x="488" y="532"/>
      <point x="407" y="577"/>
      <point x="309" y="577" type="curve" smooth="yes"/>
      <point x="147" y="577"/>
      <point x="35" y="454"/>
      <point x="35" y="280" type="curve" smooth="yes"/>
      <point x="35" y="97"/>
      <point x="158" y="-21"/>
    </contour>
    <contour>
      <point x="367" y="98" type="curve" smooth="yes"/>
      <point x="258" y="98"/>
      <point x="189" y="170"/>
      <point x="189" y="278" type="curve" smooth="yes"/>
      <point x="189" y="386"/>
      <point x="259" y="458"/>
      <point x="367" y="458" type="curve" smooth="yes"/>
      <point x="475" y="458"/>
      <point x="549" y="387"/>
      <point x="549" y="281" type="curve" smooth="yes"/>
      <point x="549" y="271" type="line" smooth="yes"/>
      <point x="549" y="167"/>
      <point x="474" y="98"/>
    </contour>
  </outline>
</glyph>
<glyph name="r" format="2">
  <advance width="494"/>
  <unicode hex="0072"/>
  <anchor x="158" y="0" name="bottom"/>
  <anchor x="248" y="560" name="top"/>
  <outline>
    <contour>
      <point x="61" y="0" type="line"/>
      <point x="211" y="0" type="line"/>
      <point x="211" y="366" type="line"/>
      <point x="253" y="408"/>
      <point x="311" y="430"/>
      <point x="378" y="430" type="curve" smooth="yes"/>
      <point x="408" y="430"/>
      <point x="440" y="426"/>
      <point x="474" y="417" type="curve"/>
      <point x="474" y="565" type="line"/>
      <point x="460" y="567"/>
      <point x="446" y="568"/>
      <point x="432" y="568" type="curve" smooth="yes"/>
      <point x="341" y="568"/>
      <point x="252" y="524"/>
      <point x="207" y="429" type="curve"/>
      <point x="207" y="560" type="line"/>
      <point x="61" y="560" type="line"/>
    </contour>
  </outline>
</glyph>
<glyph name="s" format="2">
  <advance width="650"/>
  <unicode hex="0073"/>
  <anchor x="311" y="0" name="bottom"/>
  <anchor x="320" y="560" name="top"/>
  <outline>
    <contour>
      <point x="46" y="407" type="curve" smooth="yes"/>
      <point x="46" y="175"/>
      <point x="475" y="280"/>
      <point x="475" y="159" type="curve" smooth="yes"/>
      <point x="475" y="116"/>
      <point x="420" y="93"/>
      <point x="322" y="93" type="curve" smooth="yes"/>
      <point x="230" y="93"/>
      <point x="147" y="113"/>
      <point x="50" y="161" type="curve"/>
      <point x="59" y="35" type="line"/>
      <point x="143" y="-4"/>
      <point x="231" y="-21"/>
      <point x="332" y="-21" type="curve" smooth="yes"/>
      <point x="514" y="-21"/>
      <point x="616" y="37"/>
      <point x="616" y="158" type="curve" smooth="yes"/>
      <point x="616" y="409"/>
      <point x="184" y="297"/>
      <point x="184" y="407" type="curve" smooth="yes"/>
      <point x="184" y="444"/>
      <point x="234" y="464"/>
      <point x="334" y="464" type="curve" smooth="yes"/>
      <point x="428" y="464"/>
      <point x="504" y="448"/>
      <point x="578" y="419" type="curve"/>
      <point x="572" y="541" type="line"/>
      <point x="508" y="564"/>
      <point x="435" y="577"/>
      <point x="339" y="577" type="curve" smooth="yes"/>
      <point x="150" y="577"/>
      <point x="46" y="519"/>
    </contour>
  </outline>
</glyph>
<glyph name="t" format="2">
  <advance width="607"/>
  <unicode hex="0074"/>
  <anchor x="332" y="0" name="bottom"/>
  <anchor x="299" y="280" name="center"/>
  <anchor x="299" y="560" name="top"/>
  <anchor x="281" y="905" name="topright"/>
  <outline>
    <contour>
      <point x="131" y="173" type="line" smooth="yes"/>
      <point x="131" y="63"/>
      <point x="230" y="-21"/>
      <point x="382" y="-21" type="curve" smooth="yes"/>
      <point x="440" y="-21"/>
      <point x="497" y="-9"/>
      <point x="552" y="14" type="curve"/>
      <point x="572" y="130" type="line"/>
      <point x="513" y="108"/>
      <point x="462" y="103"/>
      <point x="428" y="103" type="curve" smooth="yes"/>
      <point x="333" y="103"/>
      <point x="281" y="144"/>
      <point x="281" y="223" type="curve" smooth="yes"/>
      <point x="281" y="750" type="line"/>
      <point x="134" y="648" type="line"/>
      <point x="134" y="518" type="line"/>
      <point x="131" y="503" type="line"/>
    </contour>
    <contour>
      <point x="10" y="560" type="line"/>
      <point x="10" y="445" type="line"/>
      <point x="545" y="445" type="line"/>
      <point x="545" y="560" type="line"/>
    </contour>
  </outline>
</glyph>
<glyph name="u" format="2">
  <advance width="711"/>
  <unicode hex="0075"/>
  <anchor x="356" y="0" name="bottom"/>
  <anchor x="640" y="10" name="ogonek"/>
  <anchor x="356" y="560" name="top"/>
  <anchor x="691" y="560" name="topright"/>
  <outline>
    <contour>
      <point x="514" y="227" type="line"/>
      <point x="475" y="139"/>
      <point x="419" y="96"/>
      <point x="344" y="96" type="curve" smooth="yes"/>
      <point x="259" y="96"/>
      <point x="207" y="146"/>
      <point x="207" y="228" type="curve" smooth="yes"/>
      <point x="207" y="560" type="line"/>
      <point x="57" y="560" type="line"/>
      <point x="57" y="198" type="line" smooth="yes"/>
      <point x="57" y="58"/>
      <point x="137" y="-21"/>
      <point x="280" y="-21" type="curve" smooth="yes"/>
      <point x="399" y="-21"/>
      <point x="475" y="36"/>
      <point x="516" y="154" type="curve"/>
    </contour>
    <contour>
      <point x="651" y="560" type="line"/>
      <point x="501" y="560" type="line"/>
      <point x="501" y="136" type="line"/>
      <point x="501" y="128" type="line"/>
      <point x="501" y="0" type="line"/>
      <point x="651" y="0" type="line"/>
    </contour>
  </outline>
</glyph>
<glyph name="v" format="2">
  <advance width="725"/>
  <unicode hex="0076"/>
  <anchor x="363" y="0" name="bottom"/>
  <anchor x="363" y="560" name="top"/>
  <outline>
    <contour>
      <point x="20" y="560" type="line"/>
      <point x="272" y="0" type="line"/>
      <point x="453" y="0" type="line"/>
      <point x="705" y="559" type="line"/>
      <point x="538" y="560" type="line"/>
      <point x="365" y="132" type="line"/>
      <point x="191" y="560" type="line"/>
    </contour>
  </outline>
</glyph>
<glyph name="w" format="2">
  <advance width="1057"/>
  <unicode hex="0077"/>
  <anchor x="529" y="0" name="bottom"/>
  <anchor x="529" y="560" name="top"/>
  <outline>
    <contour>
      <point x="20" y="560" type="line"/>
      <point x="206" y="0" type="line"/>
      <point x="403" y="0" type="line"/>
      <point x="525" y="379" type="line"/>
      <point x="651" y="0" type="line"/>
      <point x="851" y="0" type="line"/>
      <point x="1037" y="560" type="line"/>
      <point x="889" y="560" type="line"/>
      <point x="751" y="122" type="line"/>
      <point x="604" y="560" type="line"/>
      <point x="446" y="560" type="line"/>
      <point x="302" y="124" type="line"/>
      <point x="171" y="560" type="line"/>
    </contour>
  </outline>
</glyph>
<glyph name="x" format="2">
  <advance width="713"/>
  <unicode hex="0078"/>
  <anchor x="357" y="0" name="bottom"/>
  <anchor x="357" y="560" name="top"/>
  <outline>
    <contour>
      <point x="439" y="275" type="line"/>
      <point x="687" y="560" type="line"/>
      <point x="506" y="560" type="line"/>
      <point x="352" y="371" type="line"/>
    </contour>
    <contour>
      <point x="506" y="0" type="line"/>
      <point x="696" y="0" type="line"/>
      <point x="406" y="333" type="line"/>
      <point x="217" y="560" type="line"/>
      <point x="27" y="560" type="line"/>
      <point x="300" y="243" type="line"/>
    </contour>
    <contour>
      <point x="17" y="0" type="line"/>
      <point x="198" y="0" type="line"/>
      <point x="367" y="211" type="line"/>
      <point x="280" y="308" type="line"/>
    </contour>
  </outline>
</glyph>
<glyph name="y" format="2">
  <advance width="734"/>
  <unicode hex="0079"/>
  <anchor x="371" y="0" name="bottom"/>
  <anchor x="371" y="560" name="top"/>
  <outline>
    <contour>
      <point x="20" y="560" type="line"/>
      <point x="296" y="0" type="line"/>
      <point x="280" y="-76"/>
      <point x="231" y="-100"/>
      <point x="154" y="-100" type="curve" smooth="yes"/>
      <point x="111" y="-100"/>
      <point x="76" y="-93"/>
      <point x="47" y="-86" type="curve"/>
      <point x="52" y="-206" type="line"/>
      <point x="87" y="-219"/>
      <point x="131" y="-225"/>
      <point x="179" y="-225" type="curve" smooth="yes"/>
      <point x="320" y="-225"/>
      <point x="392" y="-170"/>
      <point x="458" y="-21" type="curve" smooth="yes"/>
      <point x="714" y="560" type="line"/>
      <point x="554" y="560" type="line"/>
      <point x="356" y="67" type="line"/>
      <point x="409" y="68" type="line"/>
      <point x="187" y="560" type="line"/>
    </contour>
  </outline>
</glyph>
<glyph name="z" format="2">
  <advance width="637"/>
  <unicode hex="007A"/>
  <anchor x="303" y="0" name="bottom"/>
  <anchor x="303" y="280" name="center"/>
  <anchor x="323" y="560" name="top"/>
  <outline>
    <contour>
      <point x="30" y="125" type="line"/>
      <point x="31" y="125" type="line"/>
      <point x="31" y="0" type="line"/>
      <point x="599" y="0" type="line"/>
      <point x="599" y="123" type="line"/>
      <point x="130" y="123" type="line"/>
      <point x="170" y="84" type="line"/>
      <point x="589" y="440" type="line"/>
      <point x="589" y="560" type="line"/>
      <point x="47" y="560" type="line"/>
      <point x="48" y="440" type="line"/>
      <point x="499" y="440" type="line"/>
      <point x="447" y="481" type="line"/>
    </contour>
  </outline>
</glyph>
<glyph name="braceleft" format="2">
  <advance width="476"/>
  <unicode hex="007B"/>
  <outline>
    <contour>
      <point x="177" y="519" type="curve" smooth="yes"/>
      <point x="177" y="414"/>
      <point x="137" y="358"/>
      <point x="60" y="346" type="curve"/>
      <point x="60" y="223" type="line"/>
      <point x="137" y="212"/>
      <point x="177" y="157"/>
      <point x="177" y="52" type="curve" smooth="yes"/>
      <point x="177" y="-122"/>
      <point x="269" y="-213"/>
      <point x="446" y="-215" type="curve"/>
      <point x="446" y="-95" type="line"/>
      <point x="368" y="-93"/>
      <point x="327" y="-42"/>
      <point x="327" y="53" type="curve" smooth="yes"/>
      <point x="327" y="162"/>
      <point x="272" y="240"/>
      <point x="147" y="311" type="curve"/>
      <point x="147" y="256" type="line"/>
      <point x="272" y="329"/>
      <point x="327" y="409"/>
      <point x="327" y="517" type="curve" smooth="yes"/>
      <point x="327" y="612"/>
      <point x="368" y="663"/>
      <point x="446" y="665" type="curve"/>
      <point x="446" y="785" type="line"/>
      <point x="269" y="783"/>
      <point x="177" y="692"/>
    </contour>
  </outline>
</glyph>
<glyph name="asciitilde" format="2">
  <advance width="582"/>
  <unicode hex="007E"/>
  <anchor x="290" y="195" name="_top"/>
  <anchor x="292" y="459" name="top"/>
  <outline>
    <contour>
      <point x="20" y="283" type="curve"/>
      <point x="130" y="274" type="line"/>
      <point x="135" y="326"/>
      <point x="159" y="351"/>
      <point x="203" y="351" type="curve" smooth="yes"/>
      <point x="282" y="351"/>
      <point x="286" y="272"/>
      <point x="399" y="271" type="curve" smooth="yes"/>
      <point x="496" y="269"/>
      <point x="554" y="327"/>
      <point x="562" y="457" type="curve"/>
      <point x="454" y="464" type="line"/>
      <point x="448" y="404"/>
      <point x="426" y="382"/>
      <point x="389" y="382" type="curve" smooth="yes"/>
      <point x="321" y="382"/>
      <point x="309" y="459"/>
      <point x="190" y="459" type="curve" smooth="yes"/>
      <point x="90" y="459"/>
      <point x="30" y="403"/>
    </contour>
  </outline>
</glyph>
<glyph name="cent" format="2">
  <advance width="638"/>
  <unicode hex="00A2"/>
  <outline>
    <contour>
      <point x="347" y="796" type="line"/>
      <point x="280" y="-21" type="line"/>
      <point x="375" y="-21" type="line"/>
      <point x="442" y="796" type="line"/>
    </contour>
    <component base="c" yOffset="108"/>
  </outline>
</glyph>
<glyph name="sterling" format="2">
  <advance width="764"/>
  <unicode hex="00A3"/>
  <outline>
    <contour>
      <point x="147" y="539" type="curve" smooth="yes"/>
      <point x="147" y="372"/>
      <point x="284" y="182"/>
      <point x="73" y="120" type="curve"/>
      <point x="73" y="0" type="line"/>
      <point x="724" y="0" type="line"/>
      <point x="723" y="125" type="line"/>
      <point x="164" y="125" type="line"/>
      <point x="188" y="91" type="line"/>
      <point x="402" y="155"/>
      <point x="288" y="411"/>
      <point x="288" y="530" type="curve" smooth="yes"/>
      <point x="288" y="614"/>
      <point x="340" y="650"/>
      <point x="498" y="650" type="curve" smooth="yes"/>
      <point x="569" y="650"/>
      <point x="620" y="642"/>
      <point x="683" y="620" type="curve"/>
      <point x="683" y="741" type="line"/>
      <point x="633" y="760"/>
      <point x="575" y="770"/>
      <point x="473" y="770" type="curve" smooth="yes"/>
      <point x="252" y="770"/>
      <point x="147" y="686"/>
    </contour>
    <contour>
      <point x="70" y="439" type="line"/>
      <point x="71" y="334" type="line"/>
      <point x="617" y="334" type="line"/>
      <point x="616" y="439" type="line"/>
    </contour>
  </outline>
</glyph>
<glyph name="currency" format="2">
  <advance width="741"/>
  <unicode hex="00A4"/>
  <outline>
    <contour>
      <point x="381" y="68" type="curve" smooth="yes"/>
      <point x="562" y="68"/>
      <point x="677" y="174"/>
      <point x="677" y="332" type="curve" smooth="yes"/>
      <point x="677" y="492"/>
      <point x="562" y="597"/>
      <point x="381" y="597" type="curve" smooth="yes"/>
      <point x="202" y="597"/>
      <point x="85" y="492"/>
      <point x="85" y="332" type="curve" smooth="yes"/>
      <point x="85" y="174"/>
      <point x="201" y="68"/>
    </contour>
    <contour>
      <point x="381" y="190" type="curve" smooth="yes"/>
      <point x="295" y="190"/>
      <point x="236" y="245"/>
      <point x="236" y="332" type="curve" smooth="yes"/>
      <point x="236" y="420"/>
      <point x="295" y="476"/>
      <point x="381" y="476" type="curve" smooth="yes"/>
      <point x="467" y="476"/>
      <point x="526" y="420"/>
      <point x="526" y="332" type="curve" smooth="yes"/>
      <point x="526" y="245"/>
      <point x="467" y="190"/>
    </contour>
    <contour>
      <point x="474" y="530" type="line"/>
      <point x="549" y="471" type="line"/>
      <point x="721" y="651" type="line"/>
      <point x="644" y="716" type="line"/>
    </contour>
    <contour>
      <point x="250" y="119" type="line"/>
      <point x="175" y="178" type="line"/>
      <point x="20" y="16" type="line"/>
      <point x="97" y="-45" type="line"/>
    </contour>
    <contour>
      <point x="267" y="530" type="line"/>
      <point x="97" y="716" type="line"/>
      <point x="20" y="651" type="line"/>
      <point x="192" y="471" type="line"/>
    </contour>
    <contour>
      <point x="491" y="119" type="line"/>
      <point x="644" y="-45" type="line"/>
      <point x="721" y="16" type="line"/>
      <point x="566" y="178" type="line"/>
    </contour>
  </outline>
</glyph>
<glyph name="yen" format="2">
  <advance width="860"/>
  <unicode hex="00A5"/>
  <outline>
    <contour>
      <point x="258" y="750" type="line"/>
      <point x="80" y="750" type="line"/>
      <point x="356" y="285.054" type="line"/>
      <point x="356" y="0" type="line"/>
      <point x="506" y="0" type="line"/>
      <point x="506" y="285" type="line"/>
      <point x="780" y="750" type="line"/>
      <point x="605" y="750" type="line"/>
      <point x="433" y="408" type="line"/>
    </contour>
    <contour>
      <point x="125" y="375" type="line"/>
      <point x="125" y="285" type="line"/>
      <point x="729" y="285" type="line"/>
      <point x="729" y="375" type="line"/>
    </contour>
    <contour>
      <point x="125" y="205" type="line"/>
      <point x="125" y="115" type="line"/>
      <point x="729" y="115" type="line"/>
      <point x="729" y="205" type="line"/>
    </contour>
  </outline>
</glyph>
<glyph name="brokenbar" format="2">
  <advance width="600"/>
  <unicode hex="00A6"/>
  <outline>
    <contour>
      <point x="230" y="420" type="line"/>
      <point x="350" y="420" type="line"/>
      <point x="350" y="785" type="line"/>
      <point x="230" y="785" type="line"/>
    </contour>
    <contour>
      <point x="350" y="180" type="line"/>
      <point x="230" y="180" type="line"/>
      <point x="230" y="-215" type="line"/>
      <point x="350" y="-215" type="line"/>
    </contour>
  </outline>
</glyph>
<glyph name="section" format="2">
  <advance width="842"/>
  <unicode hex="00A7"/>
  <outline>
    <contour>
      <point x="84" y="628" type="curve" smooth="yes"/>
      <point x="81" y="333"/>
      <point x="610" y="475"/>
      <point x="610" y="283" type="curve" smooth="yes"/>
      <point x="610" y="240"/>
      <point x="584" y="169"/>
      <point x="465" y="169" type="curve"/>
      <point x="470" y="117" type="line"/>
      <point x="660" y="117"/>
      <point x="757" y="175"/>
      <point x="757" y="307" type="curve" smooth="yes"/>
      <point x="757" y="611"/>
      <point x="228" y="479"/>
      <point x="228" y="625" type="curve" smooth="yes"/>
      <point x="228" y="675"/>
      <point x="285" y="702"/>
      <point x="420" y="702" type="curve" smooth="yes"/>
      <point x="543" y="702"/>
      <point x="650" y="678"/>
      <point x="734" y="649" type="curve"/>
      <point x="725" y="779" type="line"/>
      <point x="650" y="801"/>
      <point x="542" y="821"/>
      <point x="417" y="821" type="curve" smooth="yes"/>
      <point x="192" y="821"/>
      <point x="85" y="756"/>
    </contour>
    <contour>
      <point x="86" y="308" type="curve" smooth="yes"/>
      <point x="84" y="13"/>
      <point x="623" y="153"/>
      <point x="623" y="-9" type="curve" smooth="yes"/>
      <point x="623" y="-63"/>
      <point x="566" y="-96"/>
      <point x="443" y="-96" type="curve" smooth="yes"/>
      <point x="314" y="-96"/>
      <point x="198" y="-61"/>
      <point x="75" y="-3" type="curve"/>
      <point x="85" y="-146" type="line"/>
      <point x="183" y="-193"/>
      <point x="314" y="-222"/>
      <point x="442" y="-222" type="curve" smooth="yes"/>
      <point x="655" y="-222"/>
      <point x="770" y="-145"/>
      <point x="770" y="-6" type="curve" smooth="yes"/>
      <point x="770" y="291"/>
      <point x="231" y="159"/>
      <point x="231" y="337" type="curve" smooth="yes"/>
      <point x="231" y="380"/>
      <point x="263" y="449"/>
      <point x="426" y="449" type="curve"/>
      <point x="420" y="492" type="line"/>
      <point x="195" y="492"/>
      <point x="87" y="436"/>
    </contour>
  </outline>
</glyph>
<glyph name="copyright" format="2">
  <advance width="921"/>
  <unicode hex="00A9"/>
  <outline>
    <contour>
      <point x="461" y="-21" type="curve" smooth="yes"/>
      <point x="698" y="-21"/>
      <point x="876" y="157"/>
      <point x="876" y="375" type="curve" smooth="yes"/>
      <point x="876" y="592"/>
      <point x="698" y="770"/>
      <point x="461" y="770" type="curve" smooth="yes"/>
      <point x="223" y="770"/>
      <point x="45" y="592"/>
      <point x="45" y="375" type="curve" smooth="yes"/>
      <point x="45" y="157"/>
      <point x="223" y="-21"/>
    </contour>
    <contour>
      <point x="461" y="56" type="curve" smooth="yes"/>
      <point x="258" y="56"/>
      <point x="129" y="192"/>
      <point x="129" y="375" type="curve" smooth="yes"/>
      <point x="129" y="557"/>
      <point x="258" y="693"/>
      <point x="461" y="693" type="curve" smooth="yes"/>
      <point x="663" y="693"/>
      <point x="792" y="557"/>
      <point x="792" y="375" type="curve" smooth="yes"/>
      <point x="792" y="192"/>
      <point x="663" y="56"/>
    </contour>
    <contour>
      <point x="649" y="460" type="curve"/>
      <point x="643" y="570" type="line"/>
      <point x="599" y="590"/>
      <point x="543" y="604"/>
      <point x="479" y="604" type="curve" smooth="yes"/>
      <point x="314" y="604"/>
      <point x="211" y="517"/>
      <point x="211" y="375" type="curve" smooth="yes"/>
      <point x="211" y="233"/>
      <point x="314" y="145"/>
      <point x="480" y="145" type="curve" smooth="yes"/>
      <point x="539" y="145"/>
      <point x="598" y="154"/>
      <point x="651" y="179" type="curve"/>
      <point x="657" y="284" type="line"/>
      <point x="600" y="254"/>
      <point x="548" y="238"/>
      <point x="491" y="238" type="curve" smooth="yes"/>
      <point x="382" y="238"/>
      <point x="324" y="285"/>
      <point x="324" y="374" type="curve" smooth="yes"/>
      <point x="324" y="466"/>
      <point x="378" y="513"/>
      <point x="484" y="513" type="curve" smooth="yes"/>
      <point x="546" y="513"/>
      <point x="600" y="494"/>
    </contour>
  </outline>
</glyph>
<glyph name="ordfeminine" format="2">
  <advance width="458"/>
  <unicode hex="00AA"/>
  <outline>
    <contour>
      <point x="26" y="478" type="curve" smooth="yes"/>
      <point x="26" y="413"/>
      <point x="76" y="373"/>
      <point x="160" y="373" type="curve" smooth="yes"/>
      <point x="234" y="373"/>
      <point x="293" y="405"/>
      <point x="330" y="453" type="curve"/>
      <point x="330" y="384" type="line"/>
      <point x="418" y="384" type="line"/>
      <point x="418" y="617" type="line" smooth="yes"/>
      <point x="418" y="725"/>
      <point x="346" y="785"/>
      <point x="218" y="785" type="curve" smooth="yes"/>
      <point x="155" y="785"/>
      <point x="105" y="771"/>
      <point x="58" y="748" type="curve"/>
      <point x="58" y="680" type="line"/>
      <point x="119" y="705"/>
      <point x="163" y="715"/>
      <point x="209" y="715" type="curve" smooth="yes"/>
      <point x="287" y="715"/>
      <point x="329" y="682"/>
      <point x="329" y="621" type="curve" smooth="yes"/>
      <point x="329" y="610" type="line"/>
      <point x="297" y="610" type="line" smooth="yes"/>
      <point x="117" y="610"/>
      <point x="26" y="566"/>
    </contour>
    <contour>
      <point x="113" y="490" type="curve" smooth="yes"/>
      <point x="113" y="532"/>
      <point x="165" y="554"/>
      <point x="300" y="554" type="curve" smooth="yes"/>
      <point x="329" y="554" type="line"/>
      <point x="329" y="497" type="line"/>
      <point x="288" y="463"/>
      <point x="238" y="440"/>
      <point x="188" y="440" type="curve" smooth="yes"/>
      <point x="142" y="440"/>
      <point x="113" y="459"/>
    </contour>
  </outline>
</glyph>
<glyph name="guillemetleft" format="2">
  <advance width="815"/>
  <unicode hex="00AB"/>
  <outline>
    <contour>
      <point x="50" y="314" type="line"/>
      <point x="278" y="68" type="line"/>
      <point x="441" y="68" type="line"/>
      <point x="214" y="314" type="line"/>
      <point x="440" y="560" type="line"/>
      <point x="278" y="560" type="line"/>
    </contour>
    <contour>
      <point x="359" y="314" type="line"/>
      <point x="577" y="76" type="line"/>
      <point x="735" y="76" type="line"/>
      <point x="515" y="314" type="line"/>
      <point x="734" y="552" type="line"/>
      <point x="577" y="552" type="line"/>
    </contour>
  </outline>
</glyph>
<glyph name="logicalnot" format="2">
  <advance width="600"/>
  <unicode hex="00AC"/>
  <outline>
    <contour>
      <point x="559" y="371" type="line"/>
      <point x="559" y="486" type="line"/>
      <point x="35" y="486" type="line"/>
      <point x="35" y="371" type="line"/>
    </contour>
    <contour>
      <point x="424" y="459" type="line"/>
      <point x="424" y="129" type="line"/>
      <point x="559" y="129" type="line"/>
      <point x="559" y="459" type="line"/>
    </contour>
  </outline>
</glyph>
<glyph name="registered" format="2">
  <advance width="633"/>
  <unicode hex="00AE"/>
  <outline>
    <contour>
      <point x="207" y="436" type="line"/>
      <point x="271" y="436" type="line"/>
      <point x="271" y="515" type="line"/>
      <point x="309" y="515" type="line"/>
      <point x="370" y="436" type="line"/>
      <point x="445" y="436" type="line"/>
      <point x="377" y="520" type="line"/>
      <point x="412" y="528"/>
      <point x="433" y="553"/>
      <point x="433" y="585" type="curve" smooth="yes"/>
      <point x="433" y="624"/>
      <point x="403" y="654"/>
      <point x="350" y="654" type="curve" smooth="yes"/>
      <point x="207" y="654" type="line"/>
    </contour>
    <contour>
      <point x="271" y="566" type="line"/>
      <point x="271" y="602" type="line"/>
      <point x="340" y="602" type="line" smooth="yes"/>
      <point x="365" y="602"/>
      <point x="369" y="599"/>
      <point x="369" y="585" type="curve" smooth="yes"/>
      <point x="369" y="570"/>
      <point x="365" y="566"/>
      <point x="342" y="566" type="curve" smooth="yes"/>
    </contour>
    <contour>
      <point x="317" y="273" type="curve" smooth="yes"/>
      <point x="463" y="273"/>
      <point x="583" y="393"/>
      <point x="583" y="540" type="curve" smooth="yes"/>
      <point x="583" y="686"/>
      <point x="463" y="806"/>
      <point x="317" y="806" type="curve" smooth="yes"/>
      <point x="170" y="806"/>
      <point x="50" y="686"/>
      <point x="50" y="540" type="curve" smooth="yes"/>
      <point x="50" y="393"/>
      <point x="170" y="273"/>
    </contour>
    <contour>
      <point x="317" y="339" type="curve" smooth="yes"/>
      <point x="201" y="339"/>
      <point x="120" y="424"/>
      <point x="120" y="540" type="curve" smooth="yes"/>
      <point x="120" y="655"/>
      <point x="201" y="740"/>
      <point x="317" y="740" type="curve" smooth="yes"/>
      <point x="432" y="740"/>
      <point x="513" y="655"/>
      <point x="513" y="540" type="curve" smooth="yes"/>
      <point x="513" y="424"/>
      <point x="432" y="339"/>
    </contour>
  </outline>
</glyph>
<glyph name="degree" format="2">
  <advance width="423"/>
  <unicode hex="00B0"/>
  <outline>
    <contour>
      <point x="212" y="446" type="curve" smooth="yes"/>
      <point x="312" y="446"/>
      <point x="388" y="522"/>
      <point x="388" y="617" type="curve" smooth="yes"/>
      <point x="388" y="710"/>
      <point x="312" y="785"/>
      <point x="212" y="785" type="curve" smooth="yes"/>
      <point x="111" y="785"/>
      <point x="35" y="710"/>
      <point x="35" y="617" type="curve" smooth="yes"/>
      <point x="35" y="522"/>
      <point x="111" y="446"/>
    </contour>
    <contour>
      <point x="212" y="526" type="curve" smooth="yes"/>
      <point x="155" y="526"/>
      <point x="121" y="562"/>
      <point x="121" y="616" type="curve" smooth="yes"/>
      <point x="121" y="669"/>
      <point x="155" y="706"/>
      <point x="212" y="705" type="curve" smooth="yes"/>
      <point x="268" y="706"/>
      <point x="302" y="669"/>
      <point x="302" y="616" type="curve" smooth="yes"/>
      <point x="302" y="562"/>
      <point x="268" y="526"/>
    </contour>
  </outline>
</glyph>
<glyph name="plusminus" format="2">
  <advance width="667"/>
  <unicode hex="00B1"/>
  <outline>
    <contour>
      <point x="273" y="197" type="line"/>
      <point x="393" y="197" type="line"/>
      <point x="393" y="580" type="line"/>
      <point x="273" y="580" type="line"/>
    </contour>
    <contour>
      <point x="622" y="337" type="line"/>
      <point x="622" y="442" type="line"/>
      <point x="45" y="442" type="line"/>
      <point x="45" y="337" type="line"/>
    </contour>
    <contour>
      <point x="622" y="12" type="line"/>
      <point x="622" y="127" type="line"/>
      <point x="45" y="127" type="line"/>
      <point x="45" y="12" type="line"/>
    </contour>
  </outline>
</glyph>
<glyph name="twosuperior" format="2">
  <advance width="521"/>
  <unicode hex="00B2"/>
  <outline>
    <contour>
      <point x="50" y="300" type="line"/>
      <point x="468" y="300" type="line"/>
      <point x="468" y="395" type="line"/>
      <point x="124" y="385" type="line"/>
      <point x="124" y="373" type="line"/>
      <point x="344" y="416"/>
      <point x="459" y="502"/>
      <point x="459" y="617" type="curve" smooth="yes"/>
      <point x="459" y="709"/>
      <point x="382" y="764"/>
      <point x="246" y="764" type="curve" smooth="yes"/>
      <point x="191" y="764"/>
      <point x="124" y="756"/>
      <point x="64" y="732" type="curve"/>
      <point x="64" y="641" type="line"/>
      <point x="114" y="662"/>
      <point x="177" y="672"/>
      <point x="225" y="672" type="curve" smooth="yes"/>
      <point x="297" y="672"/>
      <point x="340" y="648"/>
      <point x="340" y="599" type="curve" smooth="yes"/>
      <point x="340" y="539"/>
      <point x="284" y="497"/>
      <point x="50" y="400" type="curve"/>
    </contour>
  </outline>
</glyph>
<glyph name="threesuperior" format="2">
  <advance width="530"/>
  <unicode hex="00B3"/>
  <outline>
    <contour>
      <point x="60" y="312" type="line"/>
      <point x="121" y="296"/>
      <point x="180" y="288"/>
      <point x="244" y="288" type="curve" smooth="yes"/>
      <point x="393" y="288"/>
      <point x="481" y="339"/>
      <point x="481" y="436" type="curve" smooth="yes"/>
      <point x="481" y="529"/>
      <point x="391" y="571"/>
      <point x="297" y="553" type="curve"/>
      <point x="453" y="667" type="line"/>
      <point x="453" y="750" type="line"/>
      <point x="68" y="750" type="line"/>
      <point x="68" y="665" type="line"/>
      <point x="384" y="665" type="line"/>
      <point x="366" y="701" type="line"/>
      <point x="150" y="534" type="line"/>
      <point x="150" y="509" type="line"/>
      <point x="240" y="509" type="line" smooth="yes"/>
      <point x="322" y="509"/>
      <point x="364" y="484"/>
      <point x="364" y="443" type="curve" smooth="yes"/>
      <point x="364" y="402"/>
      <point x="317" y="379"/>
      <point x="236" y="379" type="curve" smooth="yes"/>
      <point x="174" y="379"/>
      <point x="110" y="389"/>
      <point x="50" y="409" type="curve"/>
    </contour>
  </outline>
</glyph>
<glyph name="micro" format="2">
  <advance width="711"/>
  <unicode hex="00B5"/>
  <anchor x="849" y="0" name="bottom"/>
  <anchor x="921" y="7" name="ogonek"/>
  <anchor x="849" y="560" name="top"/>
  <outline>
    <contour>
      <point x="57" y="401" type="line"/>
      <point x="57" y="-245" type="line"/>
      <point x="207" y="-245" type="line"/>
      <point x="207" y="401" type="line"/>
    </contour>
    <component base="u"/>
  </outline>
</glyph>
<glyph name="paragraph" format="2">
  <advance width="936"/>
  <unicode hex="00B6"/>
  <outline>
    <contour>
      <point x="716" y="785" type="line"/>
      <point x="716" y="-215" type="line"/>
      <point x="876" y="-215" type="line"/>
      <point x="876" y="785" type="line"/>
    </contour>
    <contour>
      <point x="466" y="785" type="line"/>
      <point x="466" y="-215" type="line"/>
      <point x="626" y="-215" type="line"/>
      <point x="626" y="785" type="line"/>
    </contour>
    <contour>
      <point x="30" y="532" type="curve" smooth="yes"/>
      <point x="30" y="353"/>
      <point x="141" y="278"/>
      <point x="319" y="278" type="curve" smooth="yes"/>
      <point x="486" y="278" type="line"/>
      <point x="486" y="785" type="line"/>
      <point x="319" y="785" type="line" smooth="yes"/>
      <point x="141" y="785"/>
      <point x="30" y="711"/>
    </contour>
  </outline>
</glyph>
<glyph name="onesuperior" format="2">
  <advance width="395"/>
  <unicode hex="00B9"/>
  <outline>
    <contour>
      <point x="40" y="545" type="line"/>
      <point x="148" y="545"/>
      <point x="225" y="600"/>
      <point x="236" y="683" type="curve"/>
      <point x="215" y="692" type="line"/>
      <point x="215" y="300" type="line"/>
      <point x="325" y="300" type="line"/>
      <point x="325" y="750" type="line"/>
      <point x="224" y="750" type="line"/>
      <point x="201" y="683"/>
      <point x="140" y="642"/>
      <point x="40" y="635" type="curve"/>
    </contour>
  </outline>
</glyph>
<glyph name="ordmasculine" format="2">
  <advance width="507"/>
  <unicode hex="00BA"/>
  <outline>
    <contour>
      <point x="254" y="372" type="curve" smooth="yes"/>
      <point x="390" y="372"/>
      <point x="478" y="454"/>
      <point x="478" y="578" type="curve" smooth="yes"/>
      <point x="478" y="703"/>
      <point x="390" y="785"/>
      <point x="254" y="785" type="curve" smooth="yes"/>
      <point x="118" y="785"/>
      <point x="29" y="703"/>
      <point x="29" y="578" type="curve" smooth="yes"/>
      <point x="29" y="454"/>
      <point x="117" y="372"/>
    </contour>
    <contour>
      <point x="254" y="442" type="curve" smooth="yes"/>
      <point x="172" y="442"/>
      <point x="117" y="495"/>
      <point x="117" y="578" type="curve" smooth="yes"/>
      <point x="117" y="661"/>
      <point x="172" y="715"/>
      <point x="254" y="715" type="curve" smooth="yes"/>
      <point x="335" y="715"/>
      <point x="390" y="662"/>
      <point x="390" y="578" type="curve" smooth="yes"/>
      <point x="390" y="495"/>
      <point x="335" y="442"/>
    </contour>
  </outline>
</glyph>
<glyph name="AE" format="2">
  <advance width="1331"/>
  <unicode hex="00C6"/>
  <anchor x="666" y="0" name="bottom"/>
  <anchor x="666" y="750" name="top"/>
  <outline>
    <contour>
      <point x="188" y="0" type="line"/>
      <point x="490" y="620" type="line"/>
      <point x="639" y="620" type="line"/>
      <point x="688" y="750" type="line"/>
      <point x="398" y="750" type="line"/>
      <point x="10" y="0" type="line"/>
    </contour>
    <contour>
      <point x="270" y="363" type="line"/>
      <point x="270" y="233" type="line"/>
      <point x="683" y="233" type="line"/>
      <point x="683" y="363" type="line"/>
    </contour>
    <contour>
      <point x="603" y="0" type="line"/>
      <point x="1286" y="0" type="line"/>
      <point x="1286" y="130" type="line"/>
      <point x="763" y="130" type="line"/>
      <point x="763" y="314" type="line"/>
      <point x="1224" y="314" type="line"/>
      <point x="1224" y="444" type="line"/>
      <point x="763" y="444" type="line"/>
      <point x="763" y="620" type="line"/>
      <point x="1278" y="620" type="line"/>
      <point x="1278" y="750" type="line"/>
      <point x="603" y="750" type="line"/>
    </contour>
  </outline>
</glyph>
<glyph name="Eth" format="2">
  <advance width="890"/>
  <unicode hex="00D0"/>
  <outline>
    <contour>
      <point x="0" y="323" type="line"/>
      <point x="476" y="324" type="line"/>
      <point x="476" y="444" type="line"/>
      <point x="0" y="444" type="line"/>
    </contour>
    <component base="D"/>
  </outline>
</glyph>
<glyph name="multiply" format="2">
  <advance width="563"/>
  <unicode hex="00D7"/>
  <outline>
    <contour>
      <point x="455" y="50" type="line"/>
      <point x="537" y="123" type="line"/>
      <point x="108" y="545" type="line"/>
      <point x="26" y="472" type="line"/>
    </contour>
    <contour>
      <point x="530" y="473" type="line"/>
      <point x="447" y="545" type="line"/>
      <point x="18" y="122" type="line"/>
      <point x="101" y="50" type="line"/>
    </contour>
  </outline>
</glyph>
<glyph name="Oslash" format="2">
  <advance width="980"/>
  <unicode hex="00D8"/>
  <outline>
    <contour>
      <point x="855" y="793" type="line"/>
      <point x="70" y="23" type="line"/>
      <point x="152" y="-58" type="line"/>
      <point x="937" y="711" type="line"/>
    </contour>
    <component base="O"/>
  </outline>
</glyph>
<glyph name="Thorn" format="2">
  <advance width="862"/>
  <unicode hex="00DE"/>
  <outline>
    <contour>
      <point x="70" y="0" type="line"/>
      <point x="230" y="0" type="line"/>
      <point x="230" y="160" type="line"/>
      <point x="576" y="160" type="line" smooth="yes"/>
      <point x="702" y="160"/>
      <point x="827" y="235"/>
      <point x="827" y="395" type="curve" smooth="yes"/>
      <point x="827" y="519"/>
      <point x="752" y="630"/>
      <point x="576" y="630" type="curve" smooth="yes"/>
      <point x="230" y="630" type="line"/>
      <point x="230" y="785" type="line"/>
      <point x="70" y="785" type="line"/>
    </contour>
    <contour>
      <point x="230" y="290" type="line"/>
      <point x="230" y="500" type="line"/>
      <point x="519" y="500" type="line" smooth="yes"/>
      <point x="623" y="500"/>
      <point x="667" y="469"/>
      <point x="667" y="395" type="curve" smooth="yes"/>
      <point x="667" y="321"/>
      <point x="626" y="290"/>
      <point x="526" y="290" type="curve" smooth="yes"/>
    </contour>
  </outline>
</glyph>
<glyph name="germandbls" format="2">
  <advance width="920"/>
  <unicode hex="00DF"/>
  <anchor x="456" y="0" name="bottom"/>
  <anchor x="456" y="560" name="top"/>
  <outline>
    <contour>
      <point x="137" y="0" type="line"/>
      <point x="287" y="0" type="line"/>
      <point x="287" y="565" type="line" smooth="yes"/>
      <point x="287" y="642"/>
      <point x="344" y="675"/>
      <point x="466" y="675" type="curve" smooth="yes"/>
      <point x="579" y="675"/>
      <point x="640" y="653"/>
      <point x="640" y="609" type="curve" smooth="yes"/>
      <point x="640" y="520"/>
      <point x="381" y="560"/>
      <point x="381" y="388" type="curve" smooth="yes"/>
      <point x="381" y="188"/>
      <point x="736" y="269"/>
      <point x="736" y="162" type="curve" smooth="yes"/>
      <point x="736" y="115"/>
      <point x="668" y="93"/>
      <point x="591" y="93" type="curve" smooth="yes"/>
      <point x="526" y="93"/>
      <point x="448" y="109"/>
      <point x="378" y="140" type="curve"/>
      <point x="378" y="22" type="line"/>
      <point x="447" y="-6"/>
      <point x="536" y="-21"/>
      <point x="617" y="-21" type="curve" smooth="yes"/>
      <point x="770" y="-21"/>
      <point x="886" y="37"/>
      <point x="886" y="162" type="curve" smooth="yes"/>
      <point x="886" y="398"/>
      <point x="531" y="285"/>
      <point x="531" y="393" type="curve" smooth="yes"/>
      <point x="531" y="484"/>
      <point x="790" y="419"/>
      <point x="790" y="612" type="curve" smooth="yes"/>
      <point x="790" y="730"/>
      <point x="696" y="790"/>
      <point x="471" y="790" type="curve" smooth="yes"/>
      <point x="257" y="790"/>
      <point x="137" y="706"/>
      <point x="137" y="568" type="curve" smooth="yes"/>
    </contour>
    <contour>
      <point x="157" y="445" type="line"/>
      <point x="157" y="560" type="line"/>
      <point x="10" y="560" type="line"/>
      <point x="10" y="445" type="line"/>
    </contour>
  </outline>
</glyph>
<glyph name="ae" format="2">
  <advance width="1104"/>
  <unicode hex="00E6"/>
  <anchor x="552" y="0" name="bottom"/>
  <anchor x="552" y="560" name="top"/>
  <outline>
    <contour>
      <point x="35" y="134" type="curve" smooth="yes"/>
      <point x="35" y="37"/>
      <point x="109" y="-21"/>
      <point x="233" y="-21" type="curve" smooth="yes"/>
      <point x="342" y="-21"/>
      <point x="426" y="10"/>
      <point x="532" y="106" type="curve"/>
      <point x="600" y="200" type="line"/>
      <point x="600" y="334" type="line" smooth="yes"/>
      <point x="600" y="492"/>
      <point x="510" y="577"/>
      <point x="319" y="577" type="curve" smooth="yes"/>
      <point x="225" y="577"/>
      <point x="153" y="556"/>
      <point x="81" y="513" type="curve"/>
      <point x="81" y="401" type="line"/>
      <point x="170" y="442"/>
      <point x="232" y="460"/>
      <point x="304" y="460" type="curve" smooth="yes"/>
      <point x="408" y="460"/>
      <point x="473" y="421"/>
      <point x="473" y="345" type="curve" smooth="yes"/>
      <point x="473" y="326" type="line"/>
      <point x="436" y="326" type="line" smooth="yes"/>
      <point x="170" y="326"/>
      <point x="35" y="265"/>
    </contour>
    <contour>
      <point x="174" y="153" type="curve" smooth="yes"/>
      <point x="174" y="208"/>
      <point x="254" y="236"/>
      <point x="440" y="236" type="curve" smooth="yes"/>
      <point x="473" y="236" type="line"/>
      <point x="473" y="167" type="line"/>
      <point x="404" y="115"/>
      <point x="337" y="92"/>
      <point x="275" y="92" type="curve" smooth="yes"/>
      <point x="212" y="92"/>
      <point x="174" y="115"/>
    </contour>
    <contour>
      <point x="474" y="279" type="curve" smooth="yes"/>
      <point x="474" y="97"/>
      <point x="598" y="-21"/>
      <point x="819" y="-21" type="curve" smooth="yes"/>
      <point x="911" y="-21"/>
      <point x="990" y="-3"/>
      <point x="1053" y="33" type="curve"/>
      <point x="1068" y="149" type="line"/>
      <point x="987" y="114"/>
      <point x="914" y="99"/>
      <point x="829" y="99" type="curve" smooth="yes"/>
      <point x="705" y="99"/>
      <point x="622" y="150"/>
      <point x="602" y="242" type="curve"/>
      <point x="1069" y="242" type="line"/>
      <point x="1069" y="314" type="line" smooth="yes"/>
      <point x="1069" y="472"/>
      <point x="950" y="577"/>
      <point x="771" y="577" type="curve" smooth="yes"/>
      <point x="578" y="577"/>
      <point x="474" y="461"/>
    </contour>
    <contour>
      <point x="600" y="332" type="line"/>
      <point x="606" y="417"/>
      <point x="666" y="462"/>
      <point x="770" y="462" type="curve" smooth="yes"/>
      <point x="871" y="462"/>
      <point x="926" y="419"/>
      <point x="930" y="332" type="curve"/>
    </contour>
  </outline>
</glyph>
<glyph name="eth" format="2">
  <advance width="734"/>
  <unicode hex="00F0"/>
  <outline>
    <contour>
      <point x="349" y="-23" type="curve" smooth="yes"/>
      <point x="556" y="-23"/>
      <point x="689" y="107"/>
      <point x="689" y="310" type="curve" smooth="yes"/>
      <point x="689" y="547"/>
      <point x="550" y="741"/>
      <point x="338" y="798" type="curve"/>
      <point x="187" y="746" type="line"/>
      <point x="348" y="703"/>
      <point x="474" y="598"/>
      <point x="510" y="477" type="curve"/>
      <point x="469" y="530"/>
      <point x="408" y="558"/>
      <point x="324" y="558" type="curve" smooth="yes"/>
      <point x="157" y="558"/>
      <point x="35" y="449"/>
      <point x="35" y="276" type="curve" smooth="yes"/>
      <point x="35" y="93"/>
      <point x="157" y="-23"/>
    </contour>
    <contour>
      <point x="370" y="108" type="curve" smooth="yes"/>
      <point x="258" y="108"/>
      <point x="189" y="174"/>
      <point x="189" y="279" type="curve" smooth="yes"/>
      <point x="189" y="382"/>
      <point x="261" y="451"/>
      <point x="370" y="451" type="curve" smooth="yes"/>
      <point x="480" y="451"/>
      <point x="550" y="384"/>
      <point x="550" y="279" type="curve" smooth="yes"/>
      <point x="550" y="176"/>
      <point x="478" y="108"/>
    </contour>
    <contour>
      <point x="135" y="587" type="line"/>
      <point x="517" y="658" type="line"/>
      <point x="528" y="662" type="line"/>
      <point x="699" y="694" type="line"/>
      <point x="678" y="760" type="line"/>
      <point x="114" y="656" type="line"/>
    </contour>
  </outline>
</glyph>
<glyph name="oslash" format="2">
  <advance width="740"/>
  <unicode hex="00F8"/>
  <outline>
    <contour>
      <point x="620" y="595" type="line"/>
      <point x="55" y="35" type="line"/>
      <point x="129" y="-38" type="line"/>
      <point x="694" y="521" type="line"/>
    </contour>
    <component base="o"/>
  </outline>
</glyph>
<glyph name="thorn" format="2">
  <advance width="754"/>
  <unicode hex="00FE"/>
  <outline>
    <contour>
      <point x="439" y="-21" type="curve" smooth="yes"/>
      <point x="600" y="-21"/>
      <point x="719" y="97"/>
      <point x="719" y="276" type="curve" smooth="yes"/>
      <point x="719" y="453"/>
      <point x="599" y="577"/>
      <point x="439" y="577" type="curve" smooth="yes"/>
      <point x="343" y="577"/>
      <point x="263" y="532"/>
      <point x="210" y="445" type="curve"/>
      <point x="210" y="785" type="line"/>
      <point x="60" y="785" type="line"/>
      <point x="60" y="-215" type="line"/>
      <point x="210" y="-215" type="line"/>
      <point x="210" y="100" type="line"/>
      <point x="256" y="23"/>
      <point x="341" y="-21"/>
    </contour>
    <contour>
      <point x="385" y="98" type="curve" smooth="yes"/>
      <point x="278" y="98"/>
      <point x="205" y="167"/>
      <point x="205" y="271" type="curve" smooth="yes"/>
      <point x="205" y="281" type="line" smooth="yes"/>
      <point x="205" y="387"/>
      <point x="277" y="458"/>
      <point x="385" y="458" type="curve" smooth="yes"/>
      <point x="494" y="458"/>
      <point x="565" y="386"/>
      <point x="565" y="278" type="curve" smooth="yes"/>
      <point x="565" y="170"/>
      <point x="494" y="98"/>
    </contour>
  </outline>
</glyph>
<glyph name="dcroat" format="2">
  <advance width="868"/>
  <unicode hex="0111"/>
  <outline>
    <contour>
      <point x="260" y="730" type="line"/>
      <point x="260" y="635" type="line"/>
      <point x="798" y="635" type="line"/>
      <point x="798" y="730" type="line"/>
    </contour>
    <component base="d"/>
  </outline>
</glyph>
<glyph name="Hbar" format="2">
  <advance width="982"/>
  <unicode hex="0126"/>
  <outline>
    <contour>
      <point x="20" y="553" type="line"/>
      <point x="962" y="554" type="line"/>
      <point x="962" y="663" type="line"/>
      <point x="20" y="663" type="line"/>
    </contour>
    <component base="H" xOffset="25"/>
  </outline>
</glyph>
<glyph name="hbar" format="2">
  <advance width="718"/>
  <unicode hex="0127"/>
  <outline>
    <contour>
      <point x="-20" y="730" type="line"/>
      <point x="-20" y="635" type="line"/>
      <point x="518" y="635" type="line"/>
      <point x="518" y="730" type="line"/>
    </contour>
    <component base="h"/>
  </outline>
</glyph>
<glyph name="idotless" format="2">
  <advance width="273"/>
  <unicode hex="0131"/>
  <anchor x="138" y="0" name="bottom"/>
  <anchor x="210" y="7" name="ogonek"/>
  <anchor x="138" y="560" name="top"/>
  <outline>
    <contour>
      <point x="61" y="560" type="line"/>
      <point x="61" y="0" type="line"/>
      <point x="214" y="0" type="line"/>
      <point x="214" y="560" type="line"/>
    </contour>
  </outline>
</glyph>
<glyph name="Lslash" format="2">
  <advance width="740"/>
  <unicode hex="0141"/>
  <outline>
    <contour>
      <point x="-5" y="414" type="line"/>
      <point x="-5" y="284" type="line"/>
      <point x="449" y="469" type="line"/>
      <point x="449" y="598" type="line"/>
    </contour>
    <component base="L"/>
  </outline>
</glyph>
<glyph name="lslash" format="2">
  <advance width="435"/>
  <unicode hex="0142"/>
  <outline>
    <contour>
      <point x="20" y="410" type="line"/>
      <point x="20" y="280" type="line"/>
      <point x="435" y="485" type="line"/>
      <point x="435" y="614" type="line"/>
    </contour>
    <component base="l" xOffset="88"/>
  </outline>
</glyph>
<glyph name="OE" format="2">
  <advance width="1418"/>
  <unicode hex="0152"/>
  <anchor x="1382" y="0" name="bottom"/>
  <anchor x="490" y="375" name="center"/>
  <anchor x="1728" y="7" name="ogonek"/>
  <anchor x="1382" y="750" name="top"/>
  <anchor x="1000" y="750" name="topleft"/>
  <anchor x="960" y="750" name="topright"/>
  <outline>
    <contour>
      <point x="703" y="591" type="curve"/>
      <point x="691" y="750" type="line"/>
      <point x="640" y="760"/>
      <point x="570" y="767"/>
      <point x="490" y="767" type="curve" smooth="yes"/>
      <point x="218" y="767"/>
      <point x="45" y="612"/>
      <point x="45" y="375" type="curve" smooth="yes"/>
      <point x="45" y="137"/>
      <point x="218" y="-18"/>
      <point x="490" y="-18" type="curve" smooth="yes"/>
      <point x="570" y="-18"/>
      <point x="641" y="-9"/>
      <point x="692" y="1" type="curve"/>
      <point x="703" y="160" type="line"/>
      <point x="653" y="131"/>
      <point x="580" y="114"/>
      <point x="490" y="114" type="curve" smooth="yes"/>
      <point x="317" y="114"/>
      <point x="205" y="216"/>
      <point x="205" y="375" type="curve" smooth="yes"/>
      <point x="205" y="534"/>
      <point x="317" y="637"/>
      <point x="490" y="637" type="curve" smooth="yes"/>
      <point x="580" y="637"/>
      <point x="653" y="619"/>
    </contour>
    <contour>
      <point x="690" y="0" type="line"/>
      <point x="1373" y="0" type="line"/>
      <point x="1373" y="130" type="line"/>
      <point x="850" y="130" type="line"/>
      <point x="850" y="318" type="line"/>
      <point x="1311" y="318" type="line"/>
      <point x="1311" y="444" type="line"/>
      <point x="850" y="444" type="line"/>
      <point x="850" y="620" type="line"/>
      <point x="1365" y="620" type="line"/>
      <point x="1365" y="750" type="line"/>
      <point x="690" y="750" type="line"/>
    </contour>
  </outline>
</glyph>
<glyph name="oe" format="2">
  <advance width="1181"/>
  <unicode hex="0153"/>
  <anchor x="591" y="0" name="bottom"/>
  <anchor x="591" y="560" name="top"/>
  <outline>
    <contour>
      <point x="370" y="-21" type="curve" smooth="yes"/>
      <point x="574" y="-21"/>
      <point x="675" y="99"/>
      <point x="675" y="277" type="curve" smooth="yes"/>
      <point x="675" y="458"/>
      <point x="574" y="577"/>
      <point x="370" y="577" type="curve" smooth="yes"/>
      <point x="167" y="577"/>
      <point x="35" y="458"/>
      <point x="35" y="277" type="curve" smooth="yes"/>
      <point x="35" y="99"/>
      <point x="166" y="-21"/>
    </contour>
    <contour>
      <point x="370" y="100" type="curve" smooth="yes"/>
      <point x="263" y="100"/>
      <point x="189" y="169"/>
      <point x="189" y="277" type="curve" smooth="yes"/>
      <point x="189" y="387"/>
      <point x="263" y="457"/>
      <point x="370" y="457" type="curve" smooth="yes"/>
      <point x="477" y="457"/>
      <point x="551" y="387"/>
      <point x="551" y="277" type="curve" smooth="yes"/>
      <point x="551" y="169"/>
      <point x="477" y="100"/>
    </contour>
    <contour>
      <point x="551" y="279" type="curve" smooth="yes"/>
      <point x="551" y="97"/>
      <point x="675" y="-21"/>
      <point x="896" y="-21" type="curve" smooth="yes"/>
      <point x="988" y="-21"/>
      <point x="1067" y="-3"/>
      <point x="1130" y="33" type="curve"/>
      <point x="1145" y="149" type="line"/>
      <point x="1064" y="114"/>
      <point x="991" y="99"/>
      <point x="906" y="99" type="curve" smooth="yes"/>
      <point x="782" y="99"/>
      <point x="699" y="150"/>
      <point x="679" y="242" type="curve"/>
      <point x="1146" y="242" type="line"/>
      <point x="1146" y="314" type="line" smooth="yes"/>
      <point x="1146" y="472"/>
      <point x="1027" y="577"/>
      <point x="848" y="577" type="curve" smooth="yes"/>
      <point x="655" y="577"/>
      <point x="551" y="461"/>
    </contour>
    <contour>
      <point x="677" y="332" type="line"/>
      <point x="683" y="417"/>
      <point x="743" y="462"/>
      <point x="847" y="462" type="curve" smooth="yes"/>
      <point x="948" y="462"/>
      <point x="1003" y="419"/>
      <point x="1007" y="332" type="curve"/>
    </contour>
  </outline>
</glyph>
<glyph name="Schwa" format="2">
  <advance width="899"/>
  <unicode hex="018F"/>
  <outline>
    <contour>
      <point x="854" y="375" type="curve" smooth="yes"/>
      <point x="854" y="615"/>
      <point x="683" y="770"/>
      <point x="416" y="770" type="curve" smooth="yes"/>
      <point x="293" y="770"/>
      <point x="213" y="752"/>
      <point x="90" y="696" type="curve"/>
      <point x="70" y="564" type="line"/>
      <point x="211" y="616"/>
      <point x="294" y="632"/>
      <point x="383" y="632" type="curve" smooth="yes"/>
      <point x="559" y="632"/>
      <point x="666" y="553"/>
      <point x="689" y="429" type="curve"/>
      <point x="45" y="429" type="line"/>
      <point x="45" y="401" type="line" smooth="yes"/>
      <point x="45" y="120"/>
      <point x="199" y="-17"/>
      <point x="437" y="-17" type="curve" smooth="yes"/>
      <point x="691" y="-17"/>
      <point x="854" y="136"/>
    </contour>
    <contour>
      <point x="692" y="319" type="line"/>
      <point x="685" y="186"/>
      <point x="595" y="114"/>
      <point x="438" y="114" type="curve" smooth="yes"/>
      <point x="288" y="114"/>
      <point x="203" y="186"/>
      <point x="198" y="319" type="curve"/>
    </contour>
  </outline>
</glyph>
<glyph name="florin" format="2">
  <advance width="815"/>
  <unicode hex="0192"/>
  <outline>
    <contour>
      <point x="103" y="280" type="line"/>
      <point x="320" y="280" type="line"/>
      <point x="320" y="-32"/>
      <point x="255" y="-77"/>
      <point x="136" y="-77" type="curve" smooth="yes"/>
      <point x="101" y="-77"/>
      <point x="65" y="-73"/>
      <point x="30" y="-64" type="curve"/>
      <point x="50" y="-193" type="line"/>
      <point x="87" y="-201"/>
      <point x="127" y="-205"/>
      <point x="168" y="-205" type="curve" smooth="yes"/>
      <point x="366" y="-205"/>
      <point x="470" y="-105"/>
      <point x="470" y="280" type="curve"/>
      <point x="733" y="280" type="line"/>
      <point x="733" y="400" type="line"/>
      <point x="470" y="400" type="line"/>
      <point x="470" y="601"/>
      <point x="506" y="665"/>
      <point x="646" y="665" type="curve" smooth="yes"/>
      <point x="692" y="665"/>
      <point x="736" y="657"/>
      <point x="785" y="639" type="curve"/>
      <point x="780" y="769" type="line"/>
      <point x="721" y="785"/>
      <point x="663" y="790"/>
      <point x="618" y="790" type="curve" smooth="yes"/>
      <point x="370" y="790"/>
      <point x="320" y="599"/>
      <point x="320" y="400" type="curve"/>
      <point x="103" y="400" type="line"/>
    </contour>
  </outline>
</glyph>
<glyph name="jdotless" format="2">
  <advance width="332"/>
  <unicode hex="0237"/>
  <anchor x="166" y="-215" name="bottom"/>
  <anchor x="185" y="560" name="top"/>
  <outline>
    <contour>
      <point x="262" y="560" type="line"/>
      <point x="112" y="560" type="line"/>
      <point x="112" y="51" type="line" smooth="yes"/>
      <point x="112" y="-55"/>
      <point x="47" y="-100"/>
      <point x="-67" y="-100" type="curve" smooth="yes"/>
      <point x="-102" y="-100"/>
      <point x="-142" y="-96"/>
      <point x="-178" y="-87" type="curve"/>
      <point x="-158" y="-206" type="line"/>
      <point x="-116" y="-218"/>
      <point x="-65" y="-225"/>
      <point x="-15" y="-225" type="curve" smooth="yes"/>
      <point x="158" y="-225"/>
      <point x="262" y="-125"/>
      <point x="262" y="56" type="curve" smooth="yes"/>
    </contour>
  </outline>
</glyph>
<glyph name="gravecomb" format="2">
  <advance width="418"/>
  <unicode hex="0300"/>
  <anchor x="209" y="560" name="_top"/>
  <anchor x="199" y="786" name="top"/>
  <outline>
    <contour>
      <point x="194" y="786" type="line"/>
      <point x="4" y="786" type="line"/>
      <point x="168" y="625" type="line"/>
      <point x="299" y="625" type="line"/>
    </contour>
  </outline>
</glyph>
<glyph name="acutecomb" format="2">
  <advance width="418"/>
  <unicode hex="0301"/>
  <anchor x="209" y="560" name="_top"/>
  <anchor x="267" y="786" name="top"/>
  <outline>
    <contour>
      <point x="215" y="786" type="line"/>
      <point x="110" y="625" type="line"/>
      <point x="241" y="625" type="line"/>
      <point x="405" y="786" type="line"/>
    </contour>
  </outline>
</glyph>
<glyph name="circumflexcomb" format="2">
  <advance width="610"/>
  <unicode hex="0302"/>
  <anchor x="305" y="560" name="_top"/>
  <anchor x="305" y="776" name="top"/>
  <outline>
    <contour>
      <point x="208" y="775" type="line"/>
      <point x="70" y="624" type="line"/>
      <point x="211" y="624" type="line"/>
      <point x="355" y="753" type="line"/>
      <point x="255" y="753" type="line"/>
      <point x="399" y="624" type="line"/>
      <point x="540" y="624" type="line"/>
      <point x="402" y="775" type="line"/>
    </contour>
  </outline>
</glyph>
<glyph name="tildecomb" format="2">
  <advance width="592"/>
  <unicode hex="0303"/>
  <anchor x="289" y="550" name="_top"/>
  <anchor x="291" y="790" name="top"/>
  <outline>
    <contour>
      <point x="48" y="639" type="curve"/>
      <point x="144" y="631" type="line"/>
      <point x="148" y="673"/>
      <point x="170" y="697"/>
      <point x="210" y="697" type="curve" smooth="yes"/>
      <point x="282" y="697"/>
      <point x="285" y="620"/>
      <point x="388" y="619" type="curve" smooth="yes"/>
      <point x="476" y="617"/>
      <point x="529" y="670"/>
      <point x="534" y="770" type="curve"/>
      <point x="438" y="776" type="line"/>
      <point x="433" y="735"/>
      <point x="413" y="711"/>
      <point x="381" y="711" type="curve" smooth="yes"/>
      <point x="317" y="711"/>
      <point x="306" y="790"/>
      <point x="200" y="790" type="curve" smooth="yes"/>
      <point x="107" y="790"/>
      <point x="53" y="739"/>
    </contour>
  </outline>
</glyph>
<glyph name="macroncomb" format="2">
  <advance width="538"/>
  <unicode hex="0304"/>
  <anchor x="269" y="560" name="_top"/>
  <anchor x="269" y="750" name="top"/>
  <outline>
    <contour>
      <point x="60" y="750" type="line"/>
      <point x="60" y="645" type="line"/>
      <point x="478" y="645" type="line"/>
      <point x="478" y="750" type="line"/>
    </contour>
  </outline>
</glyph>
<glyph name="brevecomb" format="2">
  <advance width="537"/>
  <unicode hex="0306"/>
  <anchor x="269" y="580" name="_top"/>
  <anchor x="269" y="811" name="top"/>
  <outline>
    <contour>
      <point x="70" y="811" type="line"/>
      <point x="70" y="698"/>
      <point x="137" y="640"/>
      <point x="268" y="640" type="curve" smooth="yes"/>
      <point x="399" y="640"/>
      <point x="467" y="698"/>
      <point x="467" y="811" type="curve"/>
      <point x="354" y="811" type="line"/>
      <point x="354" y="755"/>
      <point x="324" y="735"/>
      <point x="268" y="735" type="curve" smooth="yes"/>
      <point x="212" y="735"/>
      <point x="182" y="755"/>
      <point x="182" y="811" type="curve"/>
    </contour>
  </outline>
</glyph>
<glyph name="dotaccentcomb" format="2">
  <advance width="260"/>
  <unicode hex="0307"/>
  <anchor x="130" y="560" name="_top"/>
  <anchor x="130" y="785" name="top"/>
  <outline>
    <contour>
      <point x="54" y="785" type="line"/>
      <point x="54" y="632" type="line"/>
      <point x="207" y="632" type="line"/>
      <point x="207" y="785" type="line"/>
    </contour>
  </outline>
</glyph>
<glyph name="dieresiscomb" format="2">
  <advance width="499"/>
  <unicode hex="0308"/>
  <anchor x="241" y="560" name="_top"/>
  <anchor x="241" y="770" name="top"/>
  <outline>
    <contour>
      <point x="61" y="769" type="line"/>
      <point x="61" y="625" type="line"/>
      <point x="205" y="625" type="line"/>
      <point x="205" y="769" type="line"/>
    </contour>
    <contour>
      <point x="280" y="769" type="line"/>
      <point x="280" y="625" type="line"/>
      <point x="424" y="625" type="line"/>
      <point x="424" y="769" type="line"/>
    </contour>
  </outline>
</glyph>
<glyph name="ringcomb" format="2">
  <advance width="522"/>
  <unicode hex="030A"/>
  <anchor x="261" y="580" name="_top"/>
  <anchor x="261" y="884" name="top"/>
  <outline>
    <contour>
      <point x="86" y="675"/>
      <point x="153" y="628"/>
      <point x="261" y="628" type="curve" smooth="yes"/>
      <point x="369" y="628"/>
      <point x="436" y="675"/>
      <point x="436" y="751" type="curve" smooth="yes"/>
      <point x="435" y="827"/>
      <point x="368" y="874"/>
      <point x="261" y="874" type="curve" smooth="yes"/>
      <point x="154" y="874"/>
      <point x="87" y="827"/>
      <point x="86" y="751" type="curve" smooth="yes"/>
    </contour>
    <contour>
      <point x="180" y="782"/>
      <point x="208" y="799"/>
      <point x="261" y="799" type="curve" smooth="yes"/>
      <point x="314" y="799"/>
      <point x="342" y="782"/>
      <point x="341" y="751" type="curve" smooth="yes"/>
      <point x="340" y="719"/>
      <point x="312" y="703"/>
      <point x="261" y="704" type="curve" smooth="yes"/>
      <point x="210" y="703"/>
      <point x="182" y="719"/>
      <point x="181" y="751" type="curve" smooth="yes"/>
    </contour>
  </outline>
</glyph>
<glyph name="hungarumlautcomb" format="2">
  <advance width="803"/>
  <unicode hex="030B"/>
  <anchor x="402" y="560" name="_top"/>
  <anchor x="402" y="786" name="top"/>
  <outline>
    <contour>
      <point x="548" y="785" type="line"/>
      <point x="420" y="633" type="line"/>
      <point x="546" y="633" type="line"/>
      <point x="733" y="785" type="line"/>
    </contour>
    <contour>
      <point x="305" y="785" type="line"/>
      <point x="200" y="633" type="line"/>
      <point x="321" y="633" type="line"/>
      <point x="485" y="785" type="line"/>
    </contour>
  </outline>
</glyph>
<glyph name="caroncomb" format="2">
  <advance width="610"/>
  <unicode hex="030C"/>
  <anchor x="305" y="592" name="_top"/>
  <anchor x="305" y="814" name="top"/>
  <outline>
    <contour>
      <point x="402" y="657" type="line"/>
      <point x="540" y="808" type="line"/>
      <point x="399" y="808" type="line"/>
      <point x="255" y="679" type="line"/>
      <point x="355" y="679" type="line"/>
      <point x="211" y="808" type="line"/>
      <point x="70" y="808" type="line"/>
      <point x="208" y="657" type="line"/>
    </contour>
  </outline>
</glyph>
<glyph name="commaturnedabovecomb" format="2">
  <advance width="275"/>
  <unicode hex="0312"/>
  <anchor x="149" y="711" name="_top"/>
  <anchor x="169" y="976" name="top"/>
  <outline>
    <contour>
      <point x="259" y="781" type="line"/>
      <point x="297" y="974" type="line"/>
      <point x="163" y="974" type="line"/>
      <point x="98" y="781" type="line"/>
    </contour>
  </outline>
</glyph>
<glyph name="commaaccentcomb" format="2">
  <advance width="275"/>
  <unicode hex="0326"/>
  <anchor x="148" y="0" name="_bottom"/>
  <anchor x="158" y="-325" name="bottom"/>
  <outline>
    <contour>
      <point x="70" y="-42" type="line"/>
      <point x="34" y="-225" type="line"/>
      <point x="148" y="-225" type="line"/>
      <point x="231" y="-42" type="line"/>
    </contour>
  </outline>
</glyph>
<glyph name="cedillacomb" format="2">
  <advance width="421"/>
  <unicode hex="0327"/>
  <anchor x="211" y="-20" name="_bottom"/>
  <anchor x="219" y="-332" name="bottom"/>
  <outline>
    <contour>
      <point x="93" y="-169" type="line"/>
      <point x="119" y="-166"/>
      <point x="148" y="-165"/>
      <point x="175" y="-165" type="curve" smooth="yes"/>
      <point x="267" y="-165"/>
      <point x="299" y="-177"/>
      <point x="299" y="-203" type="curve" smooth="yes"/>
      <point x="299" y="-229"/>
      <point x="267" y="-242"/>
      <point x="179" y="-242" type="curve" smooth="yes"/>
      <point x="148" y="-242"/>
      <point x="120" y="-240"/>
      <point x="93" y="-237" type="curve"/>
      <point x="92" y="-323" type="line"/>
      <point x="123" y="-328"/>
      <point x="156" y="-332"/>
      <point x="197" y="-332" type="curve" smooth="yes"/>
      <point x="349" y="-332"/>
      <point x="414" y="-290"/>
      <point x="414" y="-205" type="curve" smooth="yes"/>
      <point x="414" y="-119"/>
      <point x="349" y="-77"/>
      <point x="206" y="-77" type="curve" smooth="yes"/>
      <point x="168" y="-77"/>
      <point x="132" y="-80"/>
      <point x="93" y="-85" type="curve"/>
    </contour>
  </outline>
</glyph>
<glyph name="ogonekcomb" format="2">
  <advance width="345"/>
  <unicode hex="0328"/>
  <anchor x="299" y="74" name="_ogonek"/>
  <outline>
    <contour>
      <point x="299" y="74" type="curve"/>
      <point x="177" y="95" type="line"/>
      <point x="99" y="54"/>
      <point x="50" y="-11"/>
      <point x="50" y="-75" type="curve" smooth="yes"/>
      <point x="50" y="-172"/>
      <point x="144" y="-217"/>
      <point x="295" y="-192" type="curve"/>
      <point x="295" y="-89" type="line"/>
      <point x="215" y="-107"/>
      <point x="164" y="-89"/>
      <point x="164" y="-45" type="curve" smooth="yes"/>
      <point x="164" y="-2"/>
      <point x="216" y="42"/>
    </contour>
  </outline>
</glyph>
<glyph name="Germandbls" format="2">
  <advance width="903"/>
  <unicode hex="1E9E"/>
  <outline>
    <contour>
      <point x="70" y="0" type="line"/>
      <point x="230" y="0" type="line"/>
      <point x="230" y="455" type="line" smooth="yes"/>
      <point x="230" y="557"/>
      <point x="277" y="620"/>
      <point x="409" y="620" type="curve" smooth="yes"/>
      <point x="710" y="620" type="line"/>
      <point x="698" y="659" type="line"/>
      <point x="354" y="418" type="line"/>
      <point x="354" y="321" type="line"/>
      <point x="606" y="321"/>
      <point x="703" y="299"/>
      <point x="703" y="213" type="curve" smooth="yes"/>
      <point x="703" y="150"/>
      <point x="652" y="119"/>
      <point x="530" y="119" type="curve" smooth="yes"/>
      <point x="452" y="119"/>
      <point x="380" y="130"/>
      <point x="331" y="148" type="curve"/>
      <point x="331" y="22" type="line"/>
      <point x="401" y="1"/>
      <point x="479" y="-11"/>
      <point x="553" y="-11" type="curve" smooth="yes"/>
      <point x="722" y="-11"/>
      <point x="873" y="50"/>
      <point x="873" y="208" type="curve" smooth="yes"/>
      <point x="873" y="352"/>
      <point x="749" y="423"/>
      <point x="542" y="423" type="curve"/>
      <point x="803" y="596" type="line"/>
      <point x="803" y="750" type="line"/>
      <point x="424" y="750" type="line" smooth="yes"/>
      <point x="195" y="750"/>
      <point x="70" y="639"/>
      <point x="70" y="468" type="curve" smooth="yes"/>
    </contour>
  </outline>
</glyph>
<glyph name="emdash" format="2">
  <advance width="1100"/>
  <unicode hex="2014"/>
  <outline>
    <contour>
      <point x="50" y="313" type="line"/>
      <point x="50" y="233" type="line"/>
      <point x="1050" y="233" type="line"/>
      <point x="1050" y="313" type="line"/>
    </contour>
  </outline>
</glyph>
<glyph name="quoteleft" format="2">
  <advance width="292"/>
  <unicode hex="2018"/>
  <outline>
    <contour>
      <point x="219" y="494" type="line"/>
      <point x="242" y="785" type="line"/>
      <point x="127" y="785" type="line"/>
      <point x="45" y="494" type="line"/>
    </contour>
  </outline>
</glyph>
<glyph name="quoteright" format="2">
  <advance width="292"/>
  <unicode hex="2019"/>
  <outline>
    <contour>
      <point x="73" y="785" type="line"/>
      <point x="50" y="494" type="line"/>
      <point x="165" y="494" type="line"/>
      <point x="247" y="785" type="line"/>
    </contour>
  </outline>
</glyph>
<glyph name="quotesinglbase" format="2">
  <advance width="297"/>
  <unicode hex="201A"/>
  <outline>
    <contour>
      <point x="83" y="76" type="line"/>
      <point x="60" y="-215" type="line"/>
      <point x="175" y="-215" type="line"/>
      <point x="257" y="76" type="line"/>
    </contour>
  </outline>
</glyph>
<glyph name="quotedblleft" format="2">
  <advance width="552"/>
  <unicode hex="201C"/>
  <outline>
    <contour>
      <point x="474" y="494" type="line"/>
      <point x="497" y="785" type="line"/>
      <point x="382" y="785" type="line"/>
      <point x="300" y="494" type="line"/>
    </contour>
    <contour>
      <point x="214" y="494" type="line"/>
      <point x="237" y="785" type="line"/>
      <point x="122" y="785" type="line"/>
      <point x="40" y="494" type="line"/>
    </contour>
  </outline>
</glyph>
<glyph name="quotedblright" format="2">
  <advance width="552"/>
  <unicode hex="201D"/>
  <outline>
    <contour>
      <point x="73" y="785" type="line"/>
      <point x="50" y="494" type="line"/>
      <point x="165" y="494" type="line"/>
      <point x="247" y="785" type="line"/>
    </contour>
    <contour>
      <point x="333" y="785" type="line"/>
      <point x="310" y="494" type="line"/>
      <point x="425" y="494" type="line"/>
      <point x="507" y="785" type="line"/>
    </contour>
  </outline>
</glyph>
<glyph name="quotedblbase" format="2">
  <advance width="552"/>
  <unicode hex="201E"/>
  <outline>
    <contour>
      <point x="78" y="76" type="line"/>
      <point x="55" y="-215" type="line"/>
      <point x="170" y="-215" type="line"/>
      <point x="252" y="76" type="line"/>
    </contour>
    <contour>
      <point x="338" y="76" type="line"/>
      <point x="315" y="-215" type="line"/>
      <point x="430" y="-215" type="line"/>
      <point x="512" y="76" type="line"/>
    </contour>
  </outline>
</glyph>
<glyph name="daggerdbl" format="2">
  <advance width="620"/>
  <unicode hex="2021"/>
  <outline>
    <contour>
      <point x="240" y="-115" type="line"/>
      <point x="380" y="-115" type="line"/>
      <point x="380" y="750" type="line"/>
      <point x="240" y="750" type="line"/>
    </contour>
    <contour>
      <point x="30" y="580" type="line"/>
      <point x="30" y="445" type="line"/>
      <point x="590" y="445" type="line"/>
      <point x="590" y="580" type="line"/>
    </contour>
    <contour>
      <point x="30" y="191" type="line"/>
      <point x="30" y="56" type="line"/>
      <point x="590" y="56" type="line"/>
      <point x="590" y="191" type="line"/>
    </contour>
  </outline>
</glyph>
<glyph name="perthousand" format="2">
  <advance width="1274"/>
  <unicode hex="2030"/>
  <outline>
    <contour>
      <point x="1037" y="-15" type="curve" smooth="yes"/>
      <point x="1155" y="-15"/>
      <point x="1234" y="60"/>
      <point x="1234" y="176" type="curve" smooth="yes"/>
      <point x="1234" y="290"/>
      <point x="1155" y="364"/>
      <point x="1037" y="364" type="curve" smooth="yes"/>
      <point x="918" y="364"/>
      <point x="839" y="290"/>
      <point x="839" y="176" type="curve" smooth="yes"/>
      <point x="839" y="60"/>
      <point x="918" y="-15"/>
    </contour>
    <contour>
      <point x="1037" y="77" type="curve" smooth="yes"/>
      <point x="981" y="75"/>
      <point x="941" y="115"/>
      <point x="942" y="175" type="curve" smooth="yes"/>
      <point x="941" y="234"/>
      <point x="981" y="274"/>
      <point x="1037" y="272" type="curve" smooth="yes"/>
      <point x="1092" y="270"/>
      <point x="1132" y="234"/>
      <point x="1131" y="175" type="curve" smooth="yes"/>
      <point x="1132" y="115"/>
      <point x="1092" y="79"/>
    </contour>
    <component base="percent"/>
  </outline>
</glyph>
<glyph name="guilsinglleft" format="2">
  <advance width="521"/>
  <unicode hex="2039"/>
  <outline>
    <contour>
      <point x="50" y="314" type="line"/>
      <point x="278" y="68" type="line"/>
      <point x="441" y="68" type="line"/>
      <point x="214" y="314" type="line"/>
      <point x="440" y="560" type="line"/>
      <point x="278" y="560" type="line"/>
    </contour>
  </outline>
</glyph>
<glyph name="fraction" format="2">
  <advance width="600"/>
  <unicode hex="2044"/>
  <outline>
    <contour>
      <point x="518" y="750" type="line"/>
      <point x="-5" y="0" type="line"/>
      <point x="128" y="0" type="line"/>
      <point x="648" y="750" type="line"/>
    </contour>
  </outline>
</glyph>
<glyph name="zerosuperior" format="2">
  <advance width="573"/>
  <unicode hex="2070"/>
  <outline>
    <contour>
      <point x="287" y="287" type="curve" smooth="yes"/>
      <point x="437" y="287"/>
      <point x="528" y="380"/>
      <point x="528" y="525" type="curve" smooth="yes"/>
      <point x="528" y="669"/>
      <point x="438" y="763"/>
      <point x="287" y="763" type="curve" smooth="yes"/>
      <point x="136" y="763"/>
      <point x="45" y="670"/>
      <point x="45" y="525" type="curve" smooth="yes"/>
      <point x="45" y="380"/>
      <point x="136" y="287"/>
    </contour>
    <contour>
      <point x="287" y="374" type="curve" smooth="yes"/>
      <point x="204" y="374"/>
      <point x="159" y="426"/>
      <point x="159" y="525" type="curve" smooth="yes"/>
      <point x="159" y="624"/>
      <point x="204" y="676"/>
      <point x="287" y="676" type="curve" smooth="yes"/>
      <point x="369" y="676"/>
      <point x="414" y="625"/>
      <point x="414" y="525" type="curve" smooth="yes"/>
      <point x="414" y="426"/>
      <point x="369" y="374"/>
    </contour>
  </outline>
</glyph>
<glyph name="foursuperior" format="2">
  <advance width="544"/>
  <unicode hex="2074"/>
  <outline>
    <contour>
      <point x="30" y="391" type="line"/>
      <point x="327" y="391" type="line"/>
      <point x="327" y="300" type="line"/>
      <point x="435" y="300" type="line"/>
      <point x="435" y="393" type="line"/>
      <point x="524" y="393" type="line"/>
      <point x="524" y="478" type="line"/>
      <point x="435" y="478" type="line"/>
      <point x="435" y="750" type="line"/>
      <point x="255" y="750" type="line"/>
      <point x="30" y="471" type="line"/>
    </contour>
    <contour>
      <point x="159" y="477" type="line"/>
      <point x="327" y="686" type="line"/>
      <point x="327" y="477" type="line"/>
    </contour>
  </outline>
</glyph>
<glyph name="euro" format="2">
  <advance width="833"/>
  <unicode hex="20AC"/>
  <outline>
    <contour>
      <point x="779" y="596" type="curve"/>
      <point x="774" y="731" type="line"/>
      <point x="717" y="751"/>
      <point x="645" y="767"/>
      <point x="558" y="767" type="curve" smooth="yes"/>
      <point x="304" y="767"/>
      <point x="140" y="618"/>
      <point x="140" y="375" type="curve" smooth="yes"/>
      <point x="140" y="138"/>
      <point x="301" y="-18"/>
      <point x="559" y="-18" type="curve" smooth="yes"/>
      <point x="647" y="-18"/>
      <point x="718" y="-4"/>
      <point x="792" y="29" type="curve"/>
      <point x="798" y="164" type="line"/>
      <point x="721" y="125"/>
      <point x="658" y="111"/>
      <point x="584" y="111" type="curve" smooth="yes"/>
      <point x="395" y="111"/>
      <point x="295" y="210"/>
      <point x="295" y="374" type="curve" smooth="yes"/>
      <point x="295" y="549"/>
      <point x="383" y="639"/>
      <point x="562" y="639" type="curve" smooth="yes"/>
      <point x="644" y="639"/>
      <point x="720" y="620"/>
    </contour>
    <contour>
      <point x="55" y="509" type="line"/>
      <point x="55" y="419" type="line"/>
      <point x="639" y="419" type="line"/>
      <point x="639" y="509" type="line"/>
    </contour>
    <contour>
      <point x="55" y="339" type="line"/>
      <point x="55" y="249" type="line"/>
      <point x="639" y="249" type="line"/>
      <point x="639" y="339" type="line"/>
    </contour>
  </outline>
</glyph>
<glyph name="trademark" format="2">
  <advance width="729"/>
  <unicode hex="2122"/>
  <outline>
    <contour>
      <point x="50" y="704" type="line"/>
      <point x="144" y="704" type="line"/>
      <point x="144" y="513" type="line"/>
      <point x="225" y="513" type="line"/>
      <point x="225" y="704" type="line"/>
      <point x="320" y="704" type="line"/>
      <point x="320" y="770" type="line"/>
      <point x="50" y="770" type="line"/>
    </contour>
    <contour>
      <point x="356" y="513" type="line"/>
      <point x="429" y="513" type="line"/>
      <point x="429" y="710" type="line"/>
      <point x="404" y="710" type="line"/>
      <point x="484" y="513" type="line"/>
      <point x="551" y="513" type="line"/>
      <point x="629" y="710" type="line"/>
      <point x="606" y="710" type="line"/>
      <point x="606" y="513" type="line"/>
      <point x="679" y="513" type="line"/>
      <point x="679" y="770" type="line"/>
      <point x="591" y="770" type="line"/>
      <point x="490" y="537" type="line"/>
      <point x="544" y="537" type="line"/>
      <point x="442" y="770" type="line"/>
      <point x="356" y="770" type="line"/>
    </contour>
  </outline>
</glyph>
<glyph name="minus" format="2">
  <advance width="614"/>
  <unicode hex="2212"/>
  <outline>
    <contour>
      <point x="569" y="232" type="line"/>
      <point x="569" y="347" type="line"/>
      <point x="45" y="347" type="line"/>
      <point x="45" y="232" type="line"/>
    </contour>
  </outline>
</glyph>
<glyph name="approxequal" format="2">
  <advance width="644"/>
  <unicode hex="2248"/>
  <outline>
    <contour>
      <point x="584" y="388" type="curve"/>
      <point x="584" y="503" type="line"/>
      <point x="534" y="462"/>
      <point x="492" y="445"/>
      <point x="439" y="445" type="curve" smooth="yes"/>
      <point x="343" y="445"/>
      <point x="301" y="497"/>
      <point x="210" y="497" type="curve" smooth="yes"/>
      <point x="165" y="497"/>
      <point x="121" y="481"/>
      <point x="60" y="443" type="curve"/>
      <point x="60" y="328" type="line"/>
      <point x="124" y="366"/>
      <point x="169" y="382"/>
      <point x="213" y="382" type="curve" smooth="yes"/>
      <point x="301" y="382"/>
      <point x="336" y="330"/>
      <point x="434" y="330" type="curve" smooth="yes"/>
      <point x="494" y="330"/>
      <point x="538" y="347"/>
    </contour>
    <contour>
      <point x="584" y="166" type="curve"/>
      <point x="584" y="281" type="line"/>
      <point x="534" y="240"/>
      <point x="492" y="223"/>
      <point x="439" y="223" type="curve" smooth="yes"/>
      <point x="343" y="223"/>
      <point x="301" y="275"/>
      <point x="210" y="275" type="curve" smooth="yes"/>
      <point x="165" y="275"/>
      <point x="121" y="259"/>
      <point x="60" y="221" type="curve"/>
      <point x="60" y="106" type="line"/>
      <point x="124" y="144"/>
      <point x="169" y="160"/>
      <point x="213" y="160" type="curve" smooth="yes"/>
      <point x="301" y="160"/>
      <point x="336" y="108"/>
      <point x="434" y="108" type="curve" smooth="yes"/>
      <point x="494" y="108"/>
      <point x="538" y="125"/>
    </contour>
  </outline>
</glyph>
<glyph name="notequal" format="2">
  <advance width="600"/>
  <unicode hex="2260"/>
  <outline>
    <contour>
      <point x="85" y="-43" type="line"/>
      <point x="202" y="-43" type="line"/>
      <point x="530" y="621" type="line"/>
      <point x="413" y="621" type="line"/>
    </contour>
    <component base="minus" yOffset="136"/>
    <component base="minus" yOffset="-117"/>
  </outline>
</glyph>
<glyph name="greaterequal" format="2">
  <advance width="600"/>
  <unicode hex="2265"/>
  <outline>
    <contour>
      <point x="569" y="333" type="line"/>
      <point x="569" y="450" type="line"/>
      <point x="45" y="580" type="line"/>
      <point x="45" y="465" type="line"/>
      <point x="478" y="377" type="line"/>
      <point x="478" y="404" type="line"/>
      <point x="45" y="310" type="line"/>
      <point x="45" y="193" type="line"/>
    </contour>
    <contour>
      <point x="569" y="12" type="line"/>
      <point x="569" y="127" type="line"/>
      <point x="45" y="127" type="line"/>
      <point x="45" y="12" type="line"/>
    </contour>
  </outline>
</glyph>
<glyph name="I.ss01" format="2">
  <advance width="672"/>
  <anchor x="336" y="0" name="bottom"/>
  <anchor x="602" y="0" name="ogonek"/>
  <anchor x="336" y="750" name="top"/>
  <anchor x="20" y="750" name="topleft"/>
  <outline>
    <contour>
      <point x="259" y="0" type="line"/>
      <point x="414" y="0" type="line"/>
      <point x="414" y="750" type="line"/>
      <point x="259" y="750" type="line"/>
    </contour>
    <contour>
      <point x="70" y="750" type="line"/>
      <point x="70" y="620" type="line"/>
      <point x="602" y="620" type="line"/>
      <point x="602" y="750" type="line"/>
    </contour>
    <contour>
      <point x="70" y="130" type="line"/>
      <point x="70" y="0" type="line"/>
      <point x="602" y="0" type="line"/>
      <point x="602" y="130" type="line"/>
    </contour>
  </outline>
</glyph>
<glyph name="IJ.ss01" format="2">
  <advance width="719"/>
  <outline>
    <contour>
      <point x="85" y="230" type="line"/>
      <point x="245" y="230" type="line"/>
      <point x="245" y="750" type="line"/>
      <point x="85" y="750" type="line"/>
    </contour>
    <contour>
      <point x="70" y="10" type="line"/>
      <point x="128" y="-9"/>
      <point x="201" y="-21"/>
      <point x="283" y="-21" type="curve" smooth="yes"/>
      <point x="511" y="-21"/>
      <point x="649" y="69"/>
      <point x="649" y="260" type="curve" smooth="yes"/>
      <point x="649" y="750" type="line"/>
      <point x="489" y="750" type="line"/>
      <point x="489" y="264" type="line" smooth="yes"/>
      <point x="489" y="173"/>
      <point x="406" y="115"/>
      <point x="248" y="115" type="curve" smooth="yes"/>
      <point x="190" y="115"/>
      <point x="130" y="123"/>
      <point x="70" y="142" type="curve"/>
    </contour>
    <contour>
      <point x="361" y="750" type="line"/>
      <point x="361" y="625" type="line"/>
      <point x="579" y="625" type="line"/>
      <point x="579" y="750" type="line"/>
    </contour>
  </outline>
</glyph>
<glyph name="Q.ss01" format="2">
  <advance width="980"/>
  <outline>
    <contour>
      <point x="45" y="375" type="curve" smooth="yes"/>
      <point x="45" y="118"/>
      <point x="212" y="-62"/>
      <point x="863" y="-225" type="curve"/>
      <point x="863" y="-67" type="line"/>
      <point x="594.526" y="-9.709" type="line"/>
      <point x="805.541" y="25.345"/>
      <point x="935" y="169.117"/>
      <point x="935" y="375" type="curve" smooth="yes"/>
      <point x="935" y="612"/>
      <point x="762" y="767"/>
      <point x="490" y="767" type="curve" smooth="yes"/>
      <point x="218" y="767"/>
      <point x="45" y="612"/>
    </contour>
    <contour>
      <point x="205" y="375" type="curve" smooth="yes"/>
      <point x="205" y="534"/>
      <point x="317" y="637"/>
      <point x="490" y="637" type="curve" smooth="yes"/>
      <point x="663" y="637"/>
      <point x="775" y="534"/>
      <point x="775" y="375" type="curve" smooth="yes"/>
      <point x="775" y="216"/>
      <point x="663" y="114"/>
      <point x="490" y="114" type="curve" smooth="yes"/>
      <point x="317" y="114"/>
      <point x="205" y="216"/>
    </contour>
  </outline>
</glyph>
<glyph name="a.ss01" format="2">
  <advance width="762"/>
  <anchor x="389" y="0" name="bottom"/>
  <anchor x="701" y="10" name="ogonek"/>
  <anchor x="389" y="560" name="top"/>
  <outline>
    <contour>
      <point x="313" y="577" type="curve" smooth="yes"/>
      <point x="154" y="577"/>
      <point x="35" y="459"/>
      <point x="35" y="280" type="curve" smooth="yes"/>
      <point x="35" y="103"/>
      <point x="155" y="-21"/>
      <point x="313" y="-21" type="curve" smooth="yes"/>
      <point x="409" y="-21"/>
      <point x="489" y="24"/>
      <point x="542" y="111" type="curve"/>
      <point x="542" y="0" type="line"/>
      <point x="692" y="0" type="line"/>
      <point x="692" y="560" type="line"/>
      <point x="542" y="560" type="line"/>
      <point x="542" y="456" type="line"/>
      <point x="496" y="533"/>
      <point x="411" y="577"/>
    </contour>
    <contour>
      <point x="367" y="458" type="curve" smooth="yes"/>
      <point x="474" y="458"/>
      <point x="547" y="389"/>
      <point x="547" y="285" type="curve" smooth="yes"/>
      <point x="547" y="275" type="line" smooth="yes"/>
      <point x="547" y="169"/>
      <point x="475" y="98"/>
      <point x="367" y="98" type="curve" smooth="yes"/>
      <point x="258" y="98"/>
      <point x="187" y="170"/>
      <point x="187" y="278" type="curve" smooth="yes"/>
      <point x="187" y="386"/>
      <point x="258" y="458"/>
    </contour>
  </outline>
</glyph>
<glyph name="caroncomb.alt" format="2">
  <advance width="338"/>
  <anchor x="20" y="769" name="_topright"/>
  <outline>
    <contour>
      <point x="101" y="768" type="line"/>
      <point x="101" y="488" type="line"/>
      <point x="195" y="488" type="line"/>
      <point x="245" y="768" type="line"/>
    </contour>
  </outline>
</glyph>
<glyph name="g.ss01" format="2">
  <advance width="766"/>
  <anchor x="377" y="-215" name="bottom"/>
  <anchor x="377" y="560" name="top"/>
  <outline>
    <contour>
      <point x="373" y="205" type="curve" smooth="yes"/>
      <point x="579" y="205"/>
      <point x="685" y="267"/>
      <point x="685" y="391" type="curve" smooth="yes"/>
      <point x="685" y="437"/>
      <point x="666" y="474"/>
      <point x="626" y="508" type="curve"/>
      <point x="627" y="516" type="line"/>
      <point x="576" y="557"/>
      <point x="491" y="577"/>
      <point x="373" y="577" type="curve" smooth="yes"/>
      <point x="166" y="577"/>
      <point x="60" y="515"/>
      <point x="60" y="391" type="curve" smooth="yes"/>
      <point x="60" y="267"/>
      <point x="167" y="205"/>
    </contour>
    <contour>
      <point x="373" y="313" type="curve" smooth="yes"/>
      <point x="252" y="313"/>
      <point x="200" y="336"/>
      <point x="200" y="392" type="curve" smooth="yes"/>
      <point x="200" y="447"/>
      <point x="252" y="470"/>
      <point x="373" y="470" type="curve" smooth="yes"/>
      <point x="493" y="470"/>
      <point x="545" y="447"/>
      <point x="545" y="392" type="curve" smooth="yes"/>
      <point x="545" y="336"/>
      <point x="493" y="313"/>
    </contour>
    <contour>
      <point x="192" y="282" type="line"/>
      <point x="83" y="241"/>
      <point x="34" y="190"/>
      <point x="34" y="125" type="curve" smooth="yes"/>
      <point x="34" y="-92"/>
      <point x="580" y="61"/>
      <point x="580" y="-48" type="curve" smooth="yes"/>
      <point x="580" y="-94"/>
      <point x="520" y="-110"/>
      <point x="379" y="-110" type="curve" smooth="yes"/>
      <point x="235" y="-110"/>
      <point x="138" y="-94"/>
      <point x="30" y="-59" type="curve"/>
      <point x="38" y="-177" type="line"/>
      <point x="130" y="-207"/>
      <point x="228" y="-225"/>
      <point x="362" y="-225" type="curve" smooth="yes"/>
      <point x="597" y="-225"/>
      <point x="718" y="-171"/>
      <point x="718" y="-43" type="curve" smooth="yes"/>
      <point x="718" y="223"/>
      <point x="141" y="42"/>
      <point x="141" y="165" type="curve" smooth="yes"/>
      <point x="141" y="193"/>
      <point x="176" y="231"/>
      <point x="249" y="255" type="curve"/>
    </contour>
    <contour>
      <point x="543" y="550" type="line"/>
      <point x="596" y="507" type="line"/>
      <point x="756" y="507" type="line"/>
      <point x="756" y="617" type="line"/>
    </contour>
  </outline>
</glyph>
<glyph name="l.ss01" format="2">
  <advance width="450"/>
  <anchor x="222" y="0" name="bottom"/>
  <anchor x="222" y="393" name="center"/>
  <anchor x="107" y="785" name="top"/>
  <anchor x="217" y="785" name="topright"/>
  <outline>
    <contour>
      <point x="40" y="173" type="line" smooth="yes"/>
      <point x="40" y="52"/>
      <point x="131" y="-21"/>
      <point x="277" y="-21" type="curve" smooth="yes"/>
      <point x="319" y="-21"/>
      <point x="365" y="-15"/>
      <point x="413" y="-1" type="curve"/>
      <point x="430" y="119" type="line"/>
      <point x="393" y="108"/>
      <point x="356" y="103"/>
      <point x="323" y="103" type="curve" smooth="yes"/>
      <point x="225" y="103"/>
      <point x="190" y="149"/>
      <point x="190" y="213" type="curve" smooth="yes"/>
      <point x="190" y="785" type="line"/>
      <point x="40" y="785" type="line"/>
    </contour>
  </outline>
</glyph>
<glyph name="lslash.ss01" format="2">
  <advance width="530"/>
  <outline>
    <contour>
      <point x="20" y="410" type="line"/>
      <point x="20" y="280" type="line"/>
      <point x="435" y="455" type="line"/>
      <point x="435" y="584" type="line"/>
    </contour>
    <component base="l.ss01" xOffset="80"/>
  </outline>
</glyph>
